  0
SECTION
  2
HEADER
  9
$ACADVER
  1
AC1009
  9
$INSUNITS
 70
     5
  0
ENDSEC
  0
SECTION
  2
TABLES
  0
TABLE
  2
LAYER
 70
     8
  0
LAYER
  2
0
 62
     7
 70
0
  6
CONTINUOUS
  0
LAYER
  2
1
 62
     1
 70
0
  6
CONTINUOUS
  0
LAYER
  2
2
 62
     2
 70
0
  6
CONTINUOUS
  0
LAYER
  2
3
 62
     3
 70
0
  6
CONTINUOUS
  0
LAYER
  2
4
 62
     4
 70
0
  6
CONTINUOUS
  0
LAYER
  2
5
 62
     5
 70
0
  6
CONTINUOUS
  0
LAYER
  2
6
 62
     6
 70
0
  6
CONTINUOUS
  0
LAYER
  2
7
 62
     7
 70
0
  6
CONTINUOUS
  0
ENDTAB
  0
TABLE
  2
STYLE
 70
     1
  0
STYLE
 70
     0
  2
STANDARD
  3
TXT
 40
0.00
 41
1.00
 42
1.00
 50
0.00
 71
     0
  0
ENDTAB
  0
ENDSEC
  0
SECTION
  2
BLOCKS
  0
BLOCK
  8
0
  2
EPAD
 70
0
 10
0.0
 20
0.0
  0
POLYLINE
  8
0
 66
1
 70
1
 40
0.5
 41
0.5
  0
VERTEX
  8
0
 10
-0.25
 20
0.0
 42
1.0
  0
VERTEX
  8
0
 10
0.25
 20
0.0
 42
1.0
  0
SEQEND
  8
0
  0
ENDBLK
  8
0
  0
BLOCK
  8
0
  2
RPAD
 70
0
 10
0.0
 20
0.0
  0
TRACE
  8
0
 10
-0.5
 20
-0.5
 11
-0.5
 21
0.5
 12
0.5
 22
-0.5
 13
0.5
 23
0.5
  0
ENDBLK
  8
0
  0
ENDSEC
0
SECTION
2
ENTITIES
0
INSERT
8
0
2
EPAD
10
-6.750000
20
3.000000
41
0.101600
42
0.101600
0
POLYLINE
8
0
66
1
70
1
40
0
41
0
0
VERTEX
8
0
10
-8.110300
20
1.793360
0
VERTEX
8
0
10
-8.110300
20
1.706640
0
VERTEX
8
0
10
-8.143140
20
1.673800
0
VERTEX
8
0
10
-8.356860
20
1.673800
0
VERTEX
8
0
10
-8.389700
20
1.706640
0
VERTEX
8
0
10
-8.389700
20
1.793360
0
VERTEX
8
0
10
-8.356860
20
1.826200
0
VERTEX
8
0
10
-8.143140
20
1.826200
0
VERTEX
8
0
10
-8.110300
20
1.793360
0
SEQEND
8
0
0
POLYLINE
8
0
66
1
70
1
40
0
41
0
0
VERTEX
8
0
10
-9.063500
20
2.576200
0
VERTEX
8
0
10
-8.936500
20
2.576200
0
VERTEX
8
0
10
-8.933903
20
2.575947
0
VERTEX
8
0
10
-8.931502
20
2.575220
0
VERTEX
8
0
10
-8.929342
20
2.574065
0
VERTEX
8
0
10
-8.927471
20
2.572529
0
VERTEX
8
0
10
-8.925935
20
2.570657
0
VERTEX
8
0
10
-8.924780
20
2.568498
0
VERTEX
8
0
10
-8.924053
20
2.566097
0
VERTEX
8
0
10
-8.923800
20
2.563500
0
VERTEX
8
0
10
-8.923800
20
2.436500
0
VERTEX
8
0
10
-8.924053
20
2.433903
0
VERTEX
8
0
10
-8.924780
20
2.431502
0
VERTEX
8
0
10
-8.925935
20
2.429343
0
VERTEX
8
0
10
-8.927471
20
2.427471
0
VERTEX
8
0
10
-8.929342
20
2.425935
0
VERTEX
8
0
10
-8.931502
20
2.424780
0
VERTEX
8
0
10
-8.933903
20
2.424053
0
VERTEX
8
0
10
-8.936500
20
2.423800
0
VERTEX
8
0
10
-9.063500
20
2.423800
0
VERTEX
8
0
10
-9.066097
20
2.424053
0
VERTEX
8
0
10
-9.068498
20
2.424780
0
VERTEX
8
0
10
-9.070658
20
2.425935
0
VERTEX
8
0
10
-9.072529
20
2.427471
0
VERTEX
8
0
10
-9.074065
20
2.429343
0
VERTEX
8
0
10
-9.075220
20
2.431502
0
VERTEX
8
0
10
-9.075947
20
2.433903
0
VERTEX
8
0
10
-9.076200
20
2.436500
0
VERTEX
8
0
10
-9.076200
20
2.563500
0
VERTEX
8
0
10
-9.075947
20
2.566097
0
VERTEX
8
0
10
-9.075220
20
2.568498
0
VERTEX
8
0
10
-9.074065
20
2.570657
0
VERTEX
8
0
10
-9.072529
20
2.572529
0
VERTEX
8
0
10
-9.070658
20
2.574065
0
VERTEX
8
0
10
-9.068498
20
2.575220
0
VERTEX
8
0
10
-9.066097
20
2.575947
0
VERTEX
8
0
10
-9.063500
20
2.576200
0
SEQEND
8
0
0
POLYLINE
8
0
66
1
70
1
40
0
41
0
0
VERTEX
8
0
10
-8.313500
20
2.576200
0
VERTEX
8
0
10
-8.186500
20
2.576200
0
VERTEX
8
0
10
-8.183903
20
2.575947
0
VERTEX
8
0
10
-8.181502
20
2.575220
0
VERTEX
8
0
10
-8.179342
20
2.574065
0
VERTEX
8
0
10
-8.177471
20
2.572529
0
VERTEX
8
0
10
-8.175935
20
2.570657
0
VERTEX
8
0
10
-8.174780
20
2.568498
0
VERTEX
8
0
10
-8.174053
20
2.566097
0
VERTEX
8
0
10
-8.173800
20
2.563500
0
VERTEX
8
0
10
-8.173800
20
2.436500
0
VERTEX
8
0
10
-8.174053
20
2.433903
0
VERTEX
8
0
10
-8.174780
20
2.431502
0
VERTEX
8
0
10
-8.175935
20
2.429343
0
VERTEX
8
0
10
-8.177471
20
2.427471
0
VERTEX
8
0
10
-8.179342
20
2.425935
0
VERTEX
8
0
10
-8.181502
20
2.424780
0
VERTEX
8
0
10
-8.183903
20
2.424053
0
VERTEX
8
0
10
-8.186500
20
2.423800
0
VERTEX
8
0
10
-8.313500
20
2.423800
0
VERTEX
8
0
10
-8.316097
20
2.424053
0
VERTEX
8
0
10
-8.318498
20
2.424780
0
VERTEX
8
0
10
-8.320658
20
2.425935
0
VERTEX
8
0
10
-8.322529
20
2.427471
0
VERTEX
8
0
10
-8.324065
20
2.429343
0
VERTEX
8
0
10
-8.325220
20
2.431502
0
VERTEX
8
0
10
-8.325947
20
2.433903
0
VERTEX
8
0
10
-8.326200
20
2.436500
0
VERTEX
8
0
10
-8.326200
20
2.563500
0
VERTEX
8
0
10
-8.325947
20
2.566097
0
VERTEX
8
0
10
-8.325220
20
2.568498
0
VERTEX
8
0
10
-8.324065
20
2.570657
0
VERTEX
8
0
10
-8.322529
20
2.572529
0
VERTEX
8
0
10
-8.320658
20
2.574065
0
VERTEX
8
0
10
-8.318498
20
2.575220
0
VERTEX
8
0
10
-8.316097
20
2.575947
0
VERTEX
8
0
10
-8.313500
20
2.576200
0
SEQEND
8
0
0
POLYLINE
8
0
66
1
70
1
40
0
41
0
0
VERTEX
8
0
10
-8.864300
20
2.898400
0
VERTEX
8
0
10
-8.864300
20
3.101600
0
VERTEX
8
0
10
-8.864047
20
3.104197
0
VERTEX
8
0
10
-8.863320
20
3.106598
0
VERTEX
8
0
10
-8.862165
20
3.108758
0
VERTEX
8
0
10
-8.860629
20
3.110629
0
VERTEX
8
0
10
-8.858757
20
3.112165
0
VERTEX
8
0
10
-8.856598
20
3.113320
0
VERTEX
8
0
10
-8.854197
20
3.114047
0
VERTEX
8
0
10
-8.851600
20
3.114300
0
VERTEX
8
0
10
-8.648400
20
3.114300
0
VERTEX
8
0
10
-8.645803
20
3.114047
0
VERTEX
8
0
10
-8.643402
20
3.113320
0
VERTEX
8
0
10
-8.641243
20
3.112165
0
VERTEX
8
0
10
-8.639371
20
3.110629
0
VERTEX
8
0
10
-8.637835
20
3.108758
0
VERTEX
8
0
10
-8.636680
20
3.106598
0
VERTEX
8
0
10
-8.635953
20
3.104197
0
VERTEX
8
0
10
-8.635700
20
3.101600
0
VERTEX
8
0
10
-8.635700
20
2.898400
0
VERTEX
8
0
10
-8.635953
20
2.895803
0
VERTEX
8
0
10
-8.636680
20
2.893402
0
VERTEX
8
0
10
-8.637835
20
2.891242
0
VERTEX
8
0
10
-8.639371
20
2.889371
0
VERTEX
8
0
10
-8.641243
20
2.887835
0
VERTEX
8
0
10
-8.643402
20
2.886680
0
VERTEX
8
0
10
-8.645803
20
2.885953
0
VERTEX
8
0
10
-8.648400
20
2.885700
0
VERTEX
8
0
10
-8.851600
20
2.885700
0
VERTEX
8
0
10
-8.854197
20
2.885953
0
VERTEX
8
0
10
-8.856598
20
2.886680
0
VERTEX
8
0
10
-8.858757
20
2.887835
0
VERTEX
8
0
10
-8.860629
20
2.889371
0
VERTEX
8
0
10
-8.862165
20
2.891242
0
VERTEX
8
0
10
-8.863320
20
2.893402
0
VERTEX
8
0
10
-8.864047
20
2.895803
0
VERTEX
8
0
10
-8.864300
20
2.898400
0
SEQEND
8
0
0
POLYLINE
8
0
66
1
70
1
40
0
41
0
0
VERTEX
8
0
10
-8.864300
20
3.152400
0
VERTEX
8
0
10
-8.864300
20
3.355600
0
VERTEX
8
0
10
-8.864047
20
3.358197
0
VERTEX
8
0
10
-8.863320
20
3.360598
0
VERTEX
8
0
10
-8.862165
20
3.362758
0
VERTEX
8
0
10
-8.860629
20
3.364629
0
VERTEX
8
0
10
-8.858757
20
3.366165
0
VERTEX
8
0
10
-8.856598
20
3.367320
0
VERTEX
8
0
10
-8.854197
20
3.368047
0
VERTEX
8
0
10
-8.851600
20
3.368300
0
VERTEX
8
0
10
-8.648400
20
3.368300
0
VERTEX
8
0
10
-8.645803
20
3.368047
0
VERTEX
8
0
10
-8.643402
20
3.367320
0
VERTEX
8
0
10
-8.641243
20
3.366165
0
VERTEX
8
0
10
-8.639371
20
3.364629
0
VERTEX
8
0
10
-8.637835
20
3.362758
0
VERTEX
8
0
10
-8.636680
20
3.360598
0
VERTEX
8
0
10
-8.635953
20
3.358197
0
VERTEX
8
0
10
-8.635700
20
3.355600
0
VERTEX
8
0
10
-8.635700
20
3.152400
0
VERTEX
8
0
10
-8.635953
20
3.149803
0
VERTEX
8
0
10
-8.636680
20
3.147402
0
VERTEX
8
0
10
-8.637835
20
3.145242
0
VERTEX
8
0
10
-8.639371
20
3.143371
0
VERTEX
8
0
10
-8.641243
20
3.141835
0
VERTEX
8
0
10
-8.643402
20
3.140680
0
VERTEX
8
0
10
-8.645803
20
3.139953
0
VERTEX
8
0
10
-8.648400
20
3.139700
0
VERTEX
8
0
10
-8.851600
20
3.139700
0
VERTEX
8
0
10
-8.854197
20
3.139953
0
VERTEX
8
0
10
-8.856598
20
3.140680
0
VERTEX
8
0
10
-8.858757
20
3.141835
0
VERTEX
8
0
10
-8.860629
20
3.143371
0
VERTEX
8
0
10
-8.862165
20
3.145242
0
VERTEX
8
0
10
-8.863320
20
3.147402
0
VERTEX
8
0
10
-8.864047
20
3.149803
0
VERTEX
8
0
10
-8.864300
20
3.152400
0
SEQEND
8
0
0
POLYLINE
8
0
66
1
70
1
40
0
41
0
0
VERTEX
8
0
10
-7.614300
20
2.898400
0
VERTEX
8
0
10
-7.614300
20
3.101600
0
VERTEX
8
0
10
-7.614047
20
3.104197
0
VERTEX
8
0
10
-7.613320
20
3.106598
0
VERTEX
8
0
10
-7.612165
20
3.108758
0
VERTEX
8
0
10
-7.610629
20
3.110629
0
VERTEX
8
0
10
-7.608757
20
3.112165
0
VERTEX
8
0
10
-7.606598
20
3.113320
0
VERTEX
8
0
10
-7.604197
20
3.114047
0
VERTEX
8
0
10
-7.601600
20
3.114300
0
VERTEX
8
0
10
-7.398400
20
3.114300
0
VERTEX
8
0
10
-7.395803
20
3.114047
0
VERTEX
8
0
10
-7.393402
20
3.113320
0
VERTEX
8
0
10
-7.391243
20
3.112165
0
VERTEX
8
0
10
-7.389371
20
3.110629
0
VERTEX
8
0
10
-7.387835
20
3.108758
0
VERTEX
8
0
10
-7.386680
20
3.106598
0
VERTEX
8
0
10
-7.385953
20
3.104197
0
VERTEX
8
0
10
-7.385700
20
3.101600
0
VERTEX
8
0
10
-7.385700
20
2.898400
0
VERTEX
8
0
10
-7.385953
20
2.895803
0
VERTEX
8
0
10
-7.386680
20
2.893402
0
VERTEX
8
0
10
-7.387835
20
2.891242
0
VERTEX
8
0
10
-7.389371
20
2.889371
0
VERTEX
8
0
10
-7.391243
20
2.887835
0
VERTEX
8
0
10
-7.393402
20
2.886680
0
VERTEX
8
0
10
-7.395803
20
2.885953
0
VERTEX
8
0
10
-7.398400
20
2.885700
0
VERTEX
8
0
10
-7.601600
20
2.885700
0
VERTEX
8
0
10
-7.604197
20
2.885953
0
VERTEX
8
0
10
-7.606598
20
2.886680
0
VERTEX
8
0
10
-7.608757
20
2.887835
0
VERTEX
8
0
10
-7.610629
20
2.889371
0
VERTEX
8
0
10
-7.612165
20
2.891242
0
VERTEX
8
0
10
-7.613320
20
2.893402
0
VERTEX
8
0
10
-7.614047
20
2.895803
0
VERTEX
8
0
10
-7.614300
20
2.898400
0
SEQEND
8
0
0
POLYLINE
8
0
66
1
70
1
40
0
41
0
0
VERTEX
8
0
10
-7.614300
20
3.152400
0
VERTEX
8
0
10
-7.614300
20
3.355600
0
VERTEX
8
0
10
-7.614047
20
3.358197
0
VERTEX
8
0
10
-7.613320
20
3.360598
0
VERTEX
8
0
10
-7.612165
20
3.362758
0
VERTEX
8
0
10
-7.610629
20
3.364629
0
VERTEX
8
0
10
-7.608757
20
3.366165
0
VERTEX
8
0
10
-7.606598
20
3.367320
0
VERTEX
8
0
10
-7.604197
20
3.368047
0
VERTEX
8
0
10
-7.601600
20
3.368300
0
VERTEX
8
0
10
-7.398400
20
3.368300
0
VERTEX
8
0
10
-7.395803
20
3.368047
0
VERTEX
8
0
10
-7.393402
20
3.367320
0
VERTEX
8
0
10
-7.391243
20
3.366165
0
VERTEX
8
0
10
-7.389371
20
3.364629
0
VERTEX
8
0
10
-7.387835
20
3.362758
0
VERTEX
8
0
10
-7.386680
20
3.360598
0
VERTEX
8
0
10
-7.385953
20
3.358197
0
VERTEX
8
0
10
-7.385700
20
3.355600
0
VERTEX
8
0
10
-7.385700
20
3.152400
0
VERTEX
8
0
10
-7.385953
20
3.149803
0
VERTEX
8
0
10
-7.386680
20
3.147402
0
VERTEX
8
0
10
-7.387835
20
3.145242
0
VERTEX
8
0
10
-7.389371
20
3.143371
0
VERTEX
8
0
10
-7.391243
20
3.141835
0
VERTEX
8
0
10
-7.393402
20
3.140680
0
VERTEX
8
0
10
-7.395803
20
3.139953
0
VERTEX
8
0
10
-7.398400
20
3.139700
0
VERTEX
8
0
10
-7.601600
20
3.139700
0
VERTEX
8
0
10
-7.604197
20
3.139953
0
VERTEX
8
0
10
-7.606598
20
3.140680
0
VERTEX
8
0
10
-7.608757
20
3.141835
0
VERTEX
8
0
10
-7.610629
20
3.143371
0
VERTEX
8
0
10
-7.612165
20
3.145242
0
VERTEX
8
0
10
-7.613320
20
3.147402
0
VERTEX
8
0
10
-7.614047
20
3.149803
0
VERTEX
8
0
10
-7.614300
20
3.152400
0
SEQEND
8
0
0
POLYLINE
8
0
66
1
70
1
40
0
41
0
0
VERTEX
8
0
10
-6.364300
20
2.898400
0
VERTEX
8
0
10
-6.364300
20
3.101600
0
VERTEX
8
0
10
-6.364047
20
3.104197
0
VERTEX
8
0
10
-6.363320
20
3.106598
0
VERTEX
8
0
10
-6.362165
20
3.108758
0
VERTEX
8
0
10
-6.360629
20
3.110629
0
VERTEX
8
0
10
-6.358757
20
3.112165
0
VERTEX
8
0
10
-6.356598
20
3.113320
0
VERTEX
8
0
10
-6.354197
20
3.114047
0
VERTEX
8
0
10
-6.351600
20
3.114300
0
VERTEX
8
0
10
-6.148400
20
3.114300
0
VERTEX
8
0
10
-6.145803
20
3.114047
0
VERTEX
8
0
10
-6.143402
20
3.113320
0
VERTEX
8
0
10
-6.141243
20
3.112165
0
VERTEX
8
0
10
-6.139371
20
3.110629
0
VERTEX
8
0
10
-6.137835
20
3.108758
0
VERTEX
8
0
10
-6.136680
20
3.106598
0
VERTEX
8
0
10
-6.135953
20
3.104197
0
VERTEX
8
0
10
-6.135700
20
3.101600
0
VERTEX
8
0
10
-6.135700
20
2.898400
0
VERTEX
8
0
10
-6.135953
20
2.895803
0
VERTEX
8
0
10
-6.136680
20
2.893402
0
VERTEX
8
0
10
-6.137835
20
2.891242
0
VERTEX
8
0
10
-6.139371
20
2.889371
0
VERTEX
8
0
10
-6.141243
20
2.887835
0
VERTEX
8
0
10
-6.143402
20
2.886680
0
VERTEX
8
0
10
-6.145803
20
2.885953
0
VERTEX
8
0
10
-6.148400
20
2.885700
0
VERTEX
8
0
10
-6.351600
20
2.885700
0
VERTEX
8
0
10
-6.354197
20
2.885953
0
VERTEX
8
0
10
-6.356598
20
2.886680
0
VERTEX
8
0
10
-6.358757
20
2.887835
0
VERTEX
8
0
10
-6.360629
20
2.889371
0
VERTEX
8
0
10
-6.362165
20
2.891242
0
VERTEX
8
0
10
-6.363320
20
2.893402
0
VERTEX
8
0
10
-6.364047
20
2.895803
0
VERTEX
8
0
10
-6.364300
20
2.898400
0
SEQEND
8
0
0
POLYLINE
8
0
66
1
70
1
40
0
41
0
0
VERTEX
8
0
10
-6.364300
20
3.152400
0
VERTEX
8
0
10
-6.364300
20
3.355600
0
VERTEX
8
0
10
-6.364047
20
3.358197
0
VERTEX
8
0
10
-6.363320
20
3.360598
0
VERTEX
8
0
10
-6.362165
20
3.362758
0
VERTEX
8
0
10
-6.360629
20
3.364629
0
VERTEX
8
0
10
-6.358757
20
3.366165
0
VERTEX
8
0
10
-6.356598
20
3.367320
0
VERTEX
8
0
10
-6.354197
20
3.368047
0
VERTEX
8
0
10
-6.351600
20
3.368300
0
VERTEX
8
0
10
-6.148400
20
3.368300
0
VERTEX
8
0
10
-6.145803
20
3.368047
0
VERTEX
8
0
10
-6.143402
20
3.367320
0
VERTEX
8
0
10
-6.141243
20
3.366165
0
VERTEX
8
0
10
-6.139371
20
3.364629
0
VERTEX
8
0
10
-6.137835
20
3.362758
0
VERTEX
8
0
10
-6.136680
20
3.360598
0
VERTEX
8
0
10
-6.135953
20
3.358197
0
VERTEX
8
0
10
-6.135700
20
3.355600
0
VERTEX
8
0
10
-6.135700
20
3.152400
0
VERTEX
8
0
10
-6.135953
20
3.149803
0
VERTEX
8
0
10
-6.136680
20
3.147402
0
VERTEX
8
0
10
-6.137835
20
3.145242
0
VERTEX
8
0
10
-6.139371
20
3.143371
0
VERTEX
8
0
10
-6.141243
20
3.141835
0
VERTEX
8
0
10
-6.143402
20
3.140680
0
VERTEX
8
0
10
-6.145803
20
3.139953
0
VERTEX
8
0
10
-6.148400
20
3.139700
0
VERTEX
8
0
10
-6.351600
20
3.139700
0
VERTEX
8
0
10
-6.354197
20
3.139953
0
VERTEX
8
0
10
-6.356598
20
3.140680
0
VERTEX
8
0
10
-6.358757
20
3.141835
0
VERTEX
8
0
10
-6.360629
20
3.143371
0
VERTEX
8
0
10
-6.362165
20
3.145242
0
VERTEX
8
0
10
-6.363320
20
3.147402
0
VERTEX
8
0
10
-6.364047
20
3.149803
0
VERTEX
8
0
10
-6.364300
20
3.152400
0
SEQEND
8
0
0
POLYLINE
8
0
66
1
70
1
40
0
41
0
0
VERTEX
8
0
10
-8.706640
20
-0.889700
0
VERTEX
8
0
10
-8.793360
20
-0.889700
0
VERTEX
8
0
10
-8.826200
20
-0.856860
0
VERTEX
8
0
10
-8.826200
20
-0.643140
0
VERTEX
8
0
10
-8.793360
20
-0.610300
0
VERTEX
8
0
10
-8.706640
20
-0.610300
0
VERTEX
8
0
10
-8.673800
20
-0.643140
0
VERTEX
8
0
10
-8.673800
20
-0.856860
0
VERTEX
8
0
10
-8.706640
20
-0.889700
0
SEQEND
8
0
0
POLYLINE
8
0
66
1
70
1
40
0
41
0
0
VERTEX
8
0
10
-7.923800
20
0.063500
0
VERTEX
8
0
10
-7.923800
20
-0.063500
0
VERTEX
8
0
10
-7.924053
20
-0.066097
0
VERTEX
8
0
10
-7.924780
20
-0.068498
0
VERTEX
8
0
10
-7.925935
20
-0.070658
0
VERTEX
8
0
10
-7.927471
20
-0.072529
0
VERTEX
8
0
10
-7.929343
20
-0.074065
0
VERTEX
8
0
10
-7.931502
20
-0.075220
0
VERTEX
8
0
10
-7.933903
20
-0.075947
0
VERTEX
8
0
10
-7.936500
20
-0.076200
0
VERTEX
8
0
10
-8.063500
20
-0.076200
0
VERTEX
8
0
10
-8.066097
20
-0.075947
0
VERTEX
8
0
10
-8.068498
20
-0.075220
0
VERTEX
8
0
10
-8.070657
20
-0.074065
0
VERTEX
8
0
10
-8.072529
20
-0.072529
0
VERTEX
8
0
10
-8.074065
20
-0.070658
0
VERTEX
8
0
10
-8.075220
20
-0.068498
0
VERTEX
8
0
10
-8.075947
20
-0.066097
0
VERTEX
8
0
10
-8.076200
20
-0.063500
0
VERTEX
8
0
10
-8.076200
20
0.063500
0
VERTEX
8
0
10
-8.075947
20
0.066097
0
VERTEX
8
0
10
-8.075220
20
0.068498
0
VERTEX
8
0
10
-8.074065
20
0.070658
0
VERTEX
8
0
10
-8.072529
20
0.072529
0
VERTEX
8
0
10
-8.070657
20
0.074065
0
VERTEX
8
0
10
-8.068498
20
0.075220
0
VERTEX
8
0
10
-8.066097
20
0.075947
0
VERTEX
8
0
10
-8.063500
20
0.076200
0
VERTEX
8
0
10
-7.936500
20
0.076200
0
VERTEX
8
0
10
-7.933903
20
0.075947
0
VERTEX
8
0
10
-7.931502
20
0.075220
0
VERTEX
8
0
10
-7.929343
20
0.074065
0
VERTEX
8
0
10
-7.927471
20
0.072529
0
VERTEX
8
0
10
-7.925935
20
0.070658
0
VERTEX
8
0
10
-7.924780
20
0.068498
0
VERTEX
8
0
10
-7.924053
20
0.066097
0
VERTEX
8
0
10
-7.923800
20
0.063500
0
SEQEND
8
0
0
POLYLINE
8
0
66
1
70
1
40
0
41
0
0
VERTEX
8
0
10
-7.923800
20
-0.686500
0
VERTEX
8
0
10
-7.923800
20
-0.813500
0
VERTEX
8
0
10
-7.924053
20
-0.816097
0
VERTEX
8
0
10
-7.924780
20
-0.818498
0
VERTEX
8
0
10
-7.925935
20
-0.820658
0
VERTEX
8
0
10
-7.927471
20
-0.822529
0
VERTEX
8
0
10
-7.929343
20
-0.824065
0
VERTEX
8
0
10
-7.931502
20
-0.825220
0
VERTEX
8
0
10
-7.933903
20
-0.825947
0
VERTEX
8
0
10
-7.936500
20
-0.826200
0
VERTEX
8
0
10
-8.063500
20
-0.826200
0
VERTEX
8
0
10
-8.066097
20
-0.825947
0
VERTEX
8
0
10
-8.068498
20
-0.825220
0
VERTEX
8
0
10
-8.070657
20
-0.824065
0
VERTEX
8
0
10
-8.072529
20
-0.822529
0
VERTEX
8
0
10
-8.074065
20
-0.820658
0
VERTEX
8
0
10
-8.075220
20
-0.818498
0
VERTEX
8
0
10
-8.075947
20
-0.816097
0
VERTEX
8
0
10
-8.076200
20
-0.813500
0
VERTEX
8
0
10
-8.076200
20
-0.686500
0
VERTEX
8
0
10
-8.075947
20
-0.683903
0
VERTEX
8
0
10
-8.075220
20
-0.681502
0
VERTEX
8
0
10
-8.074065
20
-0.679342
0
VERTEX
8
0
10
-8.072529
20
-0.677471
0
VERTEX
8
0
10
-8.070657
20
-0.675935
0
VERTEX
8
0
10
-8.068498
20
-0.674780
0
VERTEX
8
0
10
-8.066097
20
-0.674053
0
VERTEX
8
0
10
-8.063500
20
-0.673800
0
VERTEX
8
0
10
-7.936500
20
-0.673800
0
VERTEX
8
0
10
-7.933903
20
-0.674053
0
VERTEX
8
0
10
-7.931502
20
-0.674780
0
VERTEX
8
0
10
-7.929343
20
-0.675935
0
VERTEX
8
0
10
-7.927471
20
-0.677471
0
VERTEX
8
0
10
-7.925935
20
-0.679342
0
VERTEX
8
0
10
-7.924780
20
-0.681502
0
VERTEX
8
0
10
-7.924053
20
-0.683903
0
VERTEX
8
0
10
-7.923800
20
-0.686500
0
SEQEND
8
0
0
POLYLINE
8
0
66
1
70
1
40
0
41
0
0
VERTEX
8
0
10
-7.601600
20
-0.135700
0
VERTEX
8
0
10
-7.398400
20
-0.135700
0
VERTEX
8
0
10
-7.395803
20
-0.135953
0
VERTEX
8
0
10
-7.393402
20
-0.136680
0
VERTEX
8
0
10
-7.391242
20
-0.137835
0
VERTEX
8
0
10
-7.389371
20
-0.139371
0
VERTEX
8
0
10
-7.387835
20
-0.141243
0
VERTEX
8
0
10
-7.386680
20
-0.143402
0
VERTEX
8
0
10
-7.385953
20
-0.145803
0
VERTEX
8
0
10
-7.385700
20
-0.148400
0
VERTEX
8
0
10
-7.385700
20
-0.351600
0
VERTEX
8
0
10
-7.385953
20
-0.354197
0
VERTEX
8
0
10
-7.386680
20
-0.356598
0
VERTEX
8
0
10
-7.387835
20
-0.358757
0
VERTEX
8
0
10
-7.389371
20
-0.360629
0
VERTEX
8
0
10
-7.391242
20
-0.362165
0
VERTEX
8
0
10
-7.393402
20
-0.363320
0
VERTEX
8
0
10
-7.395803
20
-0.364047
0
VERTEX
8
0
10
-7.398400
20
-0.364300
0
VERTEX
8
0
10
-7.601600
20
-0.364300
0
VERTEX
8
0
10
-7.604197
20
-0.364047
0
VERTEX
8
0
10
-7.606598
20
-0.363320
0
VERTEX
8
0
10
-7.608758
20
-0.362165
0
VERTEX
8
0
10
-7.610629
20
-0.360629
0
VERTEX
8
0
10
-7.612165
20
-0.358757
0
VERTEX
8
0
10
-7.613320
20
-0.356598
0
VERTEX
8
0
10
-7.614047
20
-0.354197
0
VERTEX
8
0
10
-7.614300
20
-0.351600
0
VERTEX
8
0
10
-7.614300
20
-0.148400
0
VERTEX
8
0
10
-7.614047
20
-0.145803
0
VERTEX
8
0
10
-7.613320
20
-0.143402
0
VERTEX
8
0
10
-7.612165
20
-0.141243
0
VERTEX
8
0
10
-7.610629
20
-0.139371
0
VERTEX
8
0
10
-7.608758
20
-0.137835
0
VERTEX
8
0
10
-7.606598
20
-0.136680
0
VERTEX
8
0
10
-7.604197
20
-0.135953
0
VERTEX
8
0
10
-7.601600
20
-0.135700
0
SEQEND
8
0
0
POLYLINE
8
0
66
1
70
1
40
0
41
0
0
VERTEX
8
0
10
-7.347600
20
-0.135700
0
VERTEX
8
0
10
-7.144400
20
-0.135700
0
VERTEX
8
0
10
-7.141803
20
-0.135953
0
VERTEX
8
0
10
-7.139402
20
-0.136680
0
VERTEX
8
0
10
-7.137242
20
-0.137835
0
VERTEX
8
0
10
-7.135371
20
-0.139371
0
VERTEX
8
0
10
-7.133835
20
-0.141243
0
VERTEX
8
0
10
-7.132680
20
-0.143402
0
VERTEX
8
0
10
-7.131953
20
-0.145803
0
VERTEX
8
0
10
-7.131700
20
-0.148400
0
VERTEX
8
0
10
-7.131700
20
-0.351600
0
VERTEX
8
0
10
-7.131953
20
-0.354197
0
VERTEX
8
0
10
-7.132680
20
-0.356598
0
VERTEX
8
0
10
-7.133835
20
-0.358757
0
VERTEX
8
0
10
-7.135371
20
-0.360629
0
VERTEX
8
0
10
-7.137242
20
-0.362165
0
VERTEX
8
0
10
-7.139402
20
-0.363320
0
VERTEX
8
0
10
-7.141803
20
-0.364047
0
VERTEX
8
0
10
-7.144400
20
-0.364300
0
VERTEX
8
0
10
-7.347600
20
-0.364300
0
VERTEX
8
0
10
-7.350197
20
-0.364047
0
VERTEX
8
0
10
-7.352598
20
-0.363320
0
VERTEX
8
0
10
-7.354758
20
-0.362165
0
VERTEX
8
0
10
-7.356629
20
-0.360629
0
VERTEX
8
0
10
-7.358165
20
-0.358757
0
VERTEX
8
0
10
-7.359320
20
-0.356598
0
VERTEX
8
0
10
-7.360047
20
-0.354197
0
VERTEX
8
0
10
-7.360300
20
-0.351600
0
VERTEX
8
0
10
-7.360300
20
-0.148400
0
VERTEX
8
0
10
-7.360047
20
-0.145803
0
VERTEX
8
0
10
-7.359320
20
-0.143402
0
VERTEX
8
0
10
-7.358165
20
-0.141243
0
VERTEX
8
0
10
-7.356629
20
-0.139371
0
VERTEX
8
0
10
-7.354758
20
-0.137835
0
VERTEX
8
0
10
-7.352598
20
-0.136680
0
VERTEX
8
0
10
-7.350197
20
-0.135953
0
VERTEX
8
0
10
-7.347600
20
-0.135700
0
SEQEND
8
0
0
POLYLINE
8
0
66
1
70
1
40
0
41
0
0
VERTEX
8
0
10
-7.601600
20
-1.385700
0
VERTEX
8
0
10
-7.398400
20
-1.385700
0
VERTEX
8
0
10
-7.395803
20
-1.385953
0
VERTEX
8
0
10
-7.393402
20
-1.386680
0
VERTEX
8
0
10
-7.391242
20
-1.387835
0
VERTEX
8
0
10
-7.389371
20
-1.389371
0
VERTEX
8
0
10
-7.387835
20
-1.391243
0
VERTEX
8
0
10
-7.386680
20
-1.393402
0
VERTEX
8
0
10
-7.385953
20
-1.395803
0
VERTEX
8
0
10
-7.385700
20
-1.398400
0
VERTEX
8
0
10
-7.385700
20
-1.601600
0
VERTEX
8
0
10
-7.385953
20
-1.604197
0
VERTEX
8
0
10
-7.386680
20
-1.606598
0
VERTEX
8
0
10
-7.387835
20
-1.608757
0
VERTEX
8
0
10
-7.389371
20
-1.610629
0
VERTEX
8
0
10
-7.391242
20
-1.612165
0
VERTEX
8
0
10
-7.393402
20
-1.613320
0
VERTEX
8
0
10
-7.395803
20
-1.614047
0
VERTEX
8
0
10
-7.398400
20
-1.614300
0
VERTEX
8
0
10
-7.601600
20
-1.614300
0
VERTEX
8
0
10
-7.604197
20
-1.614047
0
VERTEX
8
0
10
-7.606598
20
-1.613320
0
VERTEX
8
0
10
-7.608758
20
-1.612165
0
VERTEX
8
0
10
-7.610629
20
-1.610629
0
VERTEX
8
0
10
-7.612165
20
-1.608757
0
VERTEX
8
0
10
-7.613320
20
-1.606598
0
VERTEX
8
0
10
-7.614047
20
-1.604197
0
VERTEX
8
0
10
-7.614300
20
-1.601600
0
VERTEX
8
0
10
-7.614300
20
-1.398400
0
VERTEX
8
0
10
-7.614047
20
-1.395803
0
VERTEX
8
0
10
-7.613320
20
-1.393402
0
VERTEX
8
0
10
-7.612165
20
-1.391243
0
VERTEX
8
0
10
-7.610629
20
-1.389371
0
VERTEX
8
0
10
-7.608758
20
-1.387835
0
VERTEX
8
0
10
-7.606598
20
-1.386680
0
VERTEX
8
0
10
-7.604197
20
-1.385953
0
VERTEX
8
0
10
-7.601600
20
-1.385700
0
SEQEND
8
0
0
POLYLINE
8
0
66
1
70
1
40
0
41
0
0
VERTEX
8
0
10
-7.347600
20
-1.385700
0
VERTEX
8
0
10
-7.144400
20
-1.385700
0
VERTEX
8
0
10
-7.141803
20
-1.385953
0
VERTEX
8
0
10
-7.139402
20
-1.386680
0
VERTEX
8
0
10
-7.137242
20
-1.387835
0
VERTEX
8
0
10
-7.135371
20
-1.389371
0
VERTEX
8
0
10
-7.133835
20
-1.391243
0
VERTEX
8
0
10
-7.132680
20
-1.393402
0
VERTEX
8
0
10
-7.131953
20
-1.395803
0
VERTEX
8
0
10
-7.131700
20
-1.398400
0
VERTEX
8
0
10
-7.131700
20
-1.601600
0
VERTEX
8
0
10
-7.131953
20
-1.604197
0
VERTEX
8
0
10
-7.132680
20
-1.606598
0
VERTEX
8
0
10
-7.133835
20
-1.608757
0
VERTEX
8
0
10
-7.135371
20
-1.610629
0
VERTEX
8
0
10
-7.137242
20
-1.612165
0
VERTEX
8
0
10
-7.139402
20
-1.613320
0
VERTEX
8
0
10
-7.141803
20
-1.614047
0
VERTEX
8
0
10
-7.144400
20
-1.614300
0
VERTEX
8
0
10
-7.347600
20
-1.614300
0
VERTEX
8
0
10
-7.350197
20
-1.614047
0
VERTEX
8
0
10
-7.352598
20
-1.613320
0
VERTEX
8
0
10
-7.354758
20
-1.612165
0
VERTEX
8
0
10
-7.356629
20
-1.610629
0
VERTEX
8
0
10
-7.358165
20
-1.608757
0
VERTEX
8
0
10
-7.359320
20
-1.606598
0
VERTEX
8
0
10
-7.360047
20
-1.604197
0
VERTEX
8
0
10
-7.360300
20
-1.601600
0
VERTEX
8
0
10
-7.360300
20
-1.398400
0
VERTEX
8
0
10
-7.360047
20
-1.395803
0
VERTEX
8
0
10
-7.359320
20
-1.393402
0
VERTEX
8
0
10
-7.358165
20
-1.391243
0
VERTEX
8
0
10
-7.356629
20
-1.389371
0
VERTEX
8
0
10
-7.354758
20
-1.387835
0
VERTEX
8
0
10
-7.352598
20
-1.386680
0
VERTEX
8
0
10
-7.350197
20
-1.385953
0
VERTEX
8
0
10
-7.347600
20
-1.385700
0
SEQEND
8
0
0
POLYLINE
8
0
66
1
70
1
40
0
41
0
0
VERTEX
8
0
10
-7.601600
20
-2.635700
0
VERTEX
8
0
10
-7.398400
20
-2.635700
0
VERTEX
8
0
10
-7.395803
20
-2.635953
0
VERTEX
8
0
10
-7.393402
20
-2.636680
0
VERTEX
8
0
10
-7.391242
20
-2.637835
0
VERTEX
8
0
10
-7.389371
20
-2.639371
0
VERTEX
8
0
10
-7.387835
20
-2.641243
0
VERTEX
8
0
10
-7.386680
20
-2.643402
0
VERTEX
8
0
10
-7.385953
20
-2.645803
0
VERTEX
8
0
10
-7.385700
20
-2.648400
0
VERTEX
8
0
10
-7.385700
20
-2.851600
0
VERTEX
8
0
10
-7.385953
20
-2.854197
0
VERTEX
8
0
10
-7.386680
20
-2.856598
0
VERTEX
8
0
10
-7.387835
20
-2.858757
0
VERTEX
8
0
10
-7.389371
20
-2.860629
0
VERTEX
8
0
10
-7.391242
20
-2.862165
0
VERTEX
8
0
10
-7.393402
20
-2.863320
0
VERTEX
8
0
10
-7.395803
20
-2.864047
0
VERTEX
8
0
10
-7.398400
20
-2.864300
0
VERTEX
8
0
10
-7.601600
20
-2.864300
0
VERTEX
8
0
10
-7.604197
20
-2.864047
0
VERTEX
8
0
10
-7.606598
20
-2.863320
0
VERTEX
8
0
10
-7.608758
20
-2.862165
0
VERTEX
8
0
10
-7.610629
20
-2.860629
0
VERTEX
8
0
10
-7.612165
20
-2.858757
0
VERTEX
8
0
10
-7.613320
20
-2.856598
0
VERTEX
8
0
10
-7.614047
20
-2.854197
0
VERTEX
8
0
10
-7.614300
20
-2.851600
0
VERTEX
8
0
10
-7.614300
20
-2.648400
0
VERTEX
8
0
10
-7.614047
20
-2.645803
0
VERTEX
8
0
10
-7.613320
20
-2.643402
0
VERTEX
8
0
10
-7.612165
20
-2.641243
0
VERTEX
8
0
10
-7.610629
20
-2.639371
0
VERTEX
8
0
10
-7.608758
20
-2.637835
0
VERTEX
8
0
10
-7.606598
20
-2.636680
0
VERTEX
8
0
10
-7.604197
20
-2.635953
0
VERTEX
8
0
10
-7.601600
20
-2.635700
0
SEQEND
8
0
0
POLYLINE
8
0
66
1
70
1
40
0
41
0
0
VERTEX
8
0
10
-7.347600
20
-2.635700
0
VERTEX
8
0
10
-7.144400
20
-2.635700
0
VERTEX
8
0
10
-7.141803
20
-2.635953
0
VERTEX
8
0
10
-7.139402
20
-2.636680
0
VERTEX
8
0
10
-7.137242
20
-2.637835
0
VERTEX
8
0
10
-7.135371
20
-2.639371
0
VERTEX
8
0
10
-7.133835
20
-2.641243
0
VERTEX
8
0
10
-7.132680
20
-2.643402
0
VERTEX
8
0
10
-7.131953
20
-2.645803
0
VERTEX
8
0
10
-7.131700
20
-2.648400
0
VERTEX
8
0
10
-7.131700
20
-2.851600
0
VERTEX
8
0
10
-7.131953
20
-2.854197
0
VERTEX
8
0
10
-7.132680
20
-2.856598
0
VERTEX
8
0
10
-7.133835
20
-2.858757
0
VERTEX
8
0
10
-7.135371
20
-2.860629
0
VERTEX
8
0
10
-7.137242
20
-2.862165
0
VERTEX
8
0
10
-7.139402
20
-2.863320
0
VERTEX
8
0
10
-7.141803
20
-2.864047
0
VERTEX
8
0
10
-7.144400
20
-2.864300
0
VERTEX
8
0
10
-7.347600
20
-2.864300
0
VERTEX
8
0
10
-7.350197
20
-2.864047
0
VERTEX
8
0
10
-7.352598
20
-2.863320
0
VERTEX
8
0
10
-7.354758
20
-2.862165
0
VERTEX
8
0
10
-7.356629
20
-2.860629
0
VERTEX
8
0
10
-7.358165
20
-2.858757
0
VERTEX
8
0
10
-7.359320
20
-2.856598
0
VERTEX
8
0
10
-7.360047
20
-2.854197
0
VERTEX
8
0
10
-7.360300
20
-2.851600
0
VERTEX
8
0
10
-7.360300
20
-2.648400
0
VERTEX
8
0
10
-7.360047
20
-2.645803
0
VERTEX
8
0
10
-7.359320
20
-2.643402
0
VERTEX
8
0
10
-7.358165
20
-2.641243
0
VERTEX
8
0
10
-7.356629
20
-2.639371
0
VERTEX
8
0
10
-7.354758
20
-2.637835
0
VERTEX
8
0
10
-7.352598
20
-2.636680
0
VERTEX
8
0
10
-7.350197
20
-2.635953
0
VERTEX
8
0
10
-7.347600
20
-2.635700
0
SEQEND
8
0
0
INSERT
8
0
2
EPAD
10
-4.500000
20
3.000000
41
0.203200
42
0.203200
0
INSERT
8
0
2
EPAD
10
-3.484000
20
3.000000
41
0.203200
42
0.203200
0
INSERT
8
0
2
EPAD
10
-4.500000
20
2.750000
41
0.203200
42
0.203200
0
INSERT
8
0
2
EPAD
10
-3.484000
20
2.750000
41
0.203200
42
0.203200
0
INSERT
8
0
2
EPAD
10
-4.500000
20
2.500000
41
0.203200
42
0.203200
0
INSERT
8
0
2
EPAD
10
-3.484000
20
2.500000
41
0.203200
42
0.203200
0
INSERT
8
0
2
EPAD
10
-4.500000
20
2.250000
41
0.203200
42
0.203200
0
INSERT
8
0
2
EPAD
10
-3.484000
20
2.250000
41
0.203200
42
0.203200
0
INSERT
8
0
2
EPAD
10
-4.500000
20
2.000000
41
0.203200
42
0.203200
0
INSERT
8
0
2
EPAD
10
-3.484000
20
2.000000
41
0.203200
42
0.203200
0
INSERT
8
0
2
EPAD
10
-4.484000
20
1.750000
41
0.203200
42
0.203200
0
INSERT
8
0
2
EPAD
10
-3.468000
20
1.750000
41
0.203200
42
0.203200
0
POLYLINE
8
0
66
1
70
1
40
0
41
0
0
VERTEX
8
0
10
-3.313500
20
3.326200
0
VERTEX
8
0
10
-3.186500
20
3.326200
0
VERTEX
8
0
10
-3.183903
20
3.325947
0
VERTEX
8
0
10
-3.181502
20
3.325220
0
VERTEX
8
0
10
-3.179342
20
3.324065
0
VERTEX
8
0
10
-3.177471
20
3.322529
0
VERTEX
8
0
10
-3.175935
20
3.320657
0
VERTEX
8
0
10
-3.174780
20
3.318498
0
VERTEX
8
0
10
-3.174053
20
3.316097
0
VERTEX
8
0
10
-3.173800
20
3.313500
0
VERTEX
8
0
10
-3.173800
20
3.186500
0
VERTEX
8
0
10
-3.174053
20
3.183903
0
VERTEX
8
0
10
-3.174780
20
3.181502
0
VERTEX
8
0
10
-3.175935
20
3.179343
0
VERTEX
8
0
10
-3.177471
20
3.177471
0
VERTEX
8
0
10
-3.179342
20
3.175935
0
VERTEX
8
0
10
-3.181502
20
3.174780
0
VERTEX
8
0
10
-3.183903
20
3.174053
0
VERTEX
8
0
10
-3.186500
20
3.173800
0
VERTEX
8
0
10
-3.313500
20
3.173800
0
VERTEX
8
0
10
-3.316097
20
3.174053
0
VERTEX
8
0
10
-3.318498
20
3.174780
0
VERTEX
8
0
10
-3.320658
20
3.175935
0
VERTEX
8
0
10
-3.322529
20
3.177471
0
VERTEX
8
0
10
-3.324065
20
3.179343
0
VERTEX
8
0
10
-3.325220
20
3.181502
0
VERTEX
8
0
10
-3.325947
20
3.183903
0
VERTEX
8
0
10
-3.326200
20
3.186500
0
VERTEX
8
0
10
-3.326200
20
3.313500
0
VERTEX
8
0
10
-3.325947
20
3.316097
0
VERTEX
8
0
10
-3.325220
20
3.318498
0
VERTEX
8
0
10
-3.324065
20
3.320657
0
VERTEX
8
0
10
-3.322529
20
3.322529
0
VERTEX
8
0
10
-3.320658
20
3.324065
0
VERTEX
8
0
10
-3.318498
20
3.325220
0
VERTEX
8
0
10
-3.316097
20
3.325947
0
VERTEX
8
0
10
-3.313500
20
3.326200
0
SEQEND
8
0
0
POLYLINE
8
0
66
1
70
1
40
0
41
0
0
VERTEX
8
0
10
-11.173800
20
3.313500
0
VERTEX
8
0
10
-11.173800
20
3.186500
0
VERTEX
8
0
10
-11.174053
20
3.183903
0
VERTEX
8
0
10
-11.174780
20
3.181502
0
VERTEX
8
0
10
-11.175935
20
3.179342
0
VERTEX
8
0
10
-11.177471
20
3.177471
0
VERTEX
8
0
10
-11.179343
20
3.175935
0
VERTEX
8
0
10
-11.181502
20
3.174780
0
VERTEX
8
0
10
-11.183903
20
3.174053
0
VERTEX
8
0
10
-11.186500
20
3.173800
0
VERTEX
8
0
10
-11.313500
20
3.173800
0
VERTEX
8
0
10
-11.316097
20
3.174053
0
VERTEX
8
0
10
-11.318498
20
3.174780
0
VERTEX
8
0
10
-11.320657
20
3.175935
0
VERTEX
8
0
10
-11.322529
20
3.177471
0
VERTEX
8
0
10
-11.324065
20
3.179342
0
VERTEX
8
0
10
-11.325220
20
3.181502
0
VERTEX
8
0
10
-11.325947
20
3.183903
0
VERTEX
8
0
10
-11.326200
20
3.186500
0
VERTEX
8
0
10
-11.326200
20
3.313500
0
VERTEX
8
0
10
-11.325947
20
3.316097
0
VERTEX
8
0
10
-11.325220
20
3.318498
0
VERTEX
8
0
10
-11.324065
20
3.320658
0
VERTEX
8
0
10
-11.322529
20
3.322529
0
VERTEX
8
0
10
-11.320657
20
3.324065
0
VERTEX
8
0
10
-11.318498
20
3.325220
0
VERTEX
8
0
10
-11.316097
20
3.325947
0
VERTEX
8
0
10
-11.313500
20
3.326200
0
VERTEX
8
0
10
-11.186500
20
3.326200
0
VERTEX
8
0
10
-11.183903
20
3.325947
0
VERTEX
8
0
10
-11.181502
20
3.325220
0
VERTEX
8
0
10
-11.179343
20
3.324065
0
VERTEX
8
0
10
-11.177471
20
3.322529
0
VERTEX
8
0
10
-11.175935
20
3.320658
0
VERTEX
8
0
10
-11.174780
20
3.318498
0
VERTEX
8
0
10
-11.174053
20
3.316097
0
VERTEX
8
0
10
-11.173800
20
3.313500
0
SEQEND
8
0
0
INSERT
8
0
2
EPAD
10
-11.250000
20
2.996000
41
0.152400
42
0.152400
0
INSERT
8
0
2
EPAD
10
-11.250000
20
2.742000
41
0.152400
42
0.152400
0
INSERT
8
0
2
EPAD
10
-11.250000
20
2.488000
41
0.152400
42
0.152400
0
INSERT
8
0
2
EPAD
10
-11.250000
20
2.234000
41
0.152400
42
0.152400
0
INSERT
8
0
2
EPAD
10
-11.250000
20
1.980000
41
0.152400
42
0.152400
0
INSERT
8
0
2
EPAD
10
-11.250000
20
1.726000
41
0.152400
42
0.152400
0
INSERT
8
0
2
EPAD
10
-11.250000
20
1.472000
41
0.152400
42
0.152400
0
INSERT
8
0
2
EPAD
10
-10.488000
20
1.472000
41
0.152400
42
0.152400
0
INSERT
8
0
2
EPAD
10
-10.488000
20
1.726000
41
0.152400
42
0.152400
0
INSERT
8
0
2
EPAD
10
-10.488000
20
1.980000
41
0.152400
42
0.152400
0
INSERT
8
0
2
EPAD
10
-10.488000
20
2.234000
41
0.152400
42
0.152400
0
INSERT
8
0
2
EPAD
10
-10.488000
20
2.488000
41
0.152400
42
0.152400
0
INSERT
8
0
2
EPAD
10
-10.488000
20
2.742000
41
0.152400
42
0.152400
0
INSERT
8
0
2
EPAD
10
-10.488000
20
2.996000
41
0.152400
42
0.152400
0
INSERT
8
0
2
EPAD
10
-10.488000
20
3.250000
41
0.152400
42
0.152400
0
POLYLINE
8
0
66
1
70
1
40
0
41
0
0
VERTEX
8
0
10
-3.313500
20
3.576200
0
VERTEX
8
0
10
-3.186500
20
3.576200
0
VERTEX
8
0
10
-3.183903
20
3.575947
0
VERTEX
8
0
10
-3.181502
20
3.575220
0
VERTEX
8
0
10
-3.179342
20
3.574065
0
VERTEX
8
0
10
-3.177471
20
3.572529
0
VERTEX
8
0
10
-3.175935
20
3.570657
0
VERTEX
8
0
10
-3.174780
20
3.568498
0
VERTEX
8
0
10
-3.174053
20
3.566097
0
VERTEX
8
0
10
-3.173800
20
3.563500
0
VERTEX
8
0
10
-3.173800
20
3.436500
0
VERTEX
8
0
10
-3.174053
20
3.433903
0
VERTEX
8
0
10
-3.174780
20
3.431502
0
VERTEX
8
0
10
-3.175935
20
3.429343
0
VERTEX
8
0
10
-3.177471
20
3.427471
0
VERTEX
8
0
10
-3.179342
20
3.425935
0
VERTEX
8
0
10
-3.181502
20
3.424780
0
VERTEX
8
0
10
-3.183903
20
3.424053
0
VERTEX
8
0
10
-3.186500
20
3.423800
0
VERTEX
8
0
10
-3.313500
20
3.423800
0
VERTEX
8
0
10
-3.316097
20
3.424053
0
VERTEX
8
0
10
-3.318498
20
3.424780
0
VERTEX
8
0
10
-3.320658
20
3.425935
0
VERTEX
8
0
10
-3.322529
20
3.427471
0
VERTEX
8
0
10
-3.324065
20
3.429343
0
VERTEX
8
0
10
-3.325220
20
3.431502
0
VERTEX
8
0
10
-3.325947
20
3.433903
0
VERTEX
8
0
10
-3.326200
20
3.436500
0
VERTEX
8
0
10
-3.326200
20
3.563500
0
VERTEX
8
0
10
-3.325947
20
3.566097
0
VERTEX
8
0
10
-3.325220
20
3.568498
0
VERTEX
8
0
10
-3.324065
20
3.570657
0
VERTEX
8
0
10
-3.322529
20
3.572529
0
VERTEX
8
0
10
-3.320658
20
3.574065
0
VERTEX
8
0
10
-3.318498
20
3.575220
0
VERTEX
8
0
10
-3.316097
20
3.575947
0
VERTEX
8
0
10
-3.313500
20
3.576200
0
SEQEND
8
0
0
INSERT
8
0
2
EPAD
10
-7.750000
20
2.250000
41
0.203200
42
0.203200
0
INSERT
8
0
2
EPAD
10
-6.734000
20
2.250000
41
0.203200
42
0.203200
0
INSERT
8
0
2
EPAD
10
-7.750000
20
2.000000
41
0.203200
42
0.203200
0
INSERT
8
0
2
EPAD
10
-6.734000
20
2.000000
41
0.203200
42
0.203200
0
INSERT
8
0
2
EPAD
10
-8.500000
20
-1.500000
41
0.203200
42
0.203200
0
INSERT
8
0
2
EPAD
10
-8.500000
20
-2.516000
41
0.203200
42
0.203200
0
INSERT
8
0
2
EPAD
10
-8.250000
20
-1.500000
41
0.203200
42
0.203200
0
INSERT
8
0
2
EPAD
10
-8.250000
20
-2.516000
41
0.203200
42
0.203200
0
CIRCLE
8
0
10
-8.750000
20
3.127000
40
0.000000
0
CIRCLE
8
0
10
-8.750000
20
3.127000
40
0.254000
0
POLYLINE
8
0
66
1
40
0.020320
41
0.020320
0
VERTEX
8
0
10
-9.004000
20
2.809500
0
VERTEX
8
0
10
-9.004000
20
2.936500
0
SEQEND
8
0
0
POLYLINE
8
0
66
1
40
0.020320
41
0.020320
0
VERTEX
8
0
10
-9.067500
20
2.873000
0
VERTEX
8
0
10
-8.940500
20
2.873000
0
SEQEND
8
0
0
TEXT
8
0
10
-9.092900
20
2.968250
40
0.121920
41
1.041667
50
90.000000
1
D5
0
CIRCLE
8
0
10
-7.500000
20
3.127000
40
0.000000
0
CIRCLE
8
0
10
-7.500000
20
3.127000
40
0.254000
0
POLYLINE
8
0
66
1
40
0.020320
41
0.020320
0
VERTEX
8
0
10
-7.754000
20
2.809500
0
VERTEX
8
0
10
-7.754000
20
2.936500
0
SEQEND
8
0
0
POLYLINE
8
0
66
1
40
0.020320
41
0.020320
0
VERTEX
8
0
10
-7.817500
20
2.873000
0
VERTEX
8
0
10
-7.690500
20
2.873000
0
SEQEND
8
0
0
TEXT
8
0
10
-7.842900
20
2.968250
40
0.121920
41
1.041667
50
90.000000
1
D3
0
CIRCLE
8
0
10
-6.250000
20
3.127000
40
0.000000
0
CIRCLE
8
0
10
-6.250000
20
3.127000
40
0.254000
0
POLYLINE
8
0
66
1
40
0.020320
41
0.020320
0
VERTEX
8
0
10
-6.504000
20
2.809500
0
VERTEX
8
0
10
-6.504000
20
2.936500
0
SEQEND
8
0
0
POLYLINE
8
0
66
1
40
0.020320
41
0.020320
0
VERTEX
8
0
10
-6.567500
20
2.873000
0
VERTEX
8
0
10
-6.440500
20
2.873000
0
SEQEND
8
0
0
TEXT
8
0
10
-6.592900
20
2.968250
40
0.121920
41
1.041667
50
90.000000
1
D1
0
POLYLINE
8
0
66
1
40
0.020320
41
0.020320
0
VERTEX
8
0
10
-9.250000
20
1.250000
0
VERTEX
8
0
10
-9.250000
20
3.500000
0
SEQEND
8
0
0
POLYLINE
8
0
66
1
40
0.020320
41
0.020320
0
VERTEX
8
0
10
-10.250000
20
3.500000
0
VERTEX
8
0
10
-10.250000
20
1.250000
0
VERTEX
8
0
10
-12.250000
20
1.250000
0
VERTEX
8
0
10
-12.500000
20
1.250000
0
SEQEND
8
0
0
POLYLINE
8
0
66
1
40
0.020320
41
0.020320
0
VERTEX
8
0
10
-9.250000
20
1.250000
0
VERTEX
8
0
10
-7.000000
20
1.250000
0
SEQEND
8
0
0
POLYLINE
8
0
66
1
40
0.020320
41
0.020320
0
VERTEX
8
0
10
-10.250000
20
0.250000
0
VERTEX
8
0
10
-12.500000
20
0.250000
0
SEQEND
8
0
0
POLYLINE
8
0
66
1
40
0.020320
41
0.020320
0
VERTEX
8
0
10
-9.250000
20
0.250000
0
VERTEX
8
0
10
-7.000000
20
0.250000
0
SEQEND
8
0
0
POLYLINE
8
0
66
1
40
0.020320
41
0.020320
0
VERTEX
8
0
10
-9.250000
20
0.250000
0
VERTEX
8
0
10
-9.250000
20
-2.000000
0
SEQEND
8
0
0
POLYLINE
8
0
66
1
40
0.020320
41
0.020320
0
VERTEX
8
0
10
-10.250000
20
0.250000
0
VERTEX
8
0
10
-10.250000
20
-2.000000
0
SEQEND
8
0
0
CIRCLE
8
0
10
-7.373000
20
-0.250000
40
0.000000
0
CIRCLE
8
0
10
-7.373000
20
-0.250000
40
0.254000
0
POLYLINE
8
0
66
1
40
0.020320
41
0.020320
0
VERTEX
8
0
10
-7.690500
20
0.004000
0
VERTEX
8
0
10
-7.563500
20
0.004000
0
SEQEND
8
0
0
POLYLINE
8
0
66
1
40
0.020320
41
0.020320
0
VERTEX
8
0
10
-7.627000
20
0.067500
0
VERTEX
8
0
10
-7.627000
20
-0.059500
0
SEQEND
8
0
0
TEXT
8
0
10
-7.531750
20
0.092900
40
0.121920
41
1.041667
1
D6
0
CIRCLE
8
0
10
-7.373000
20
-1.500000
40
0.000000
0
CIRCLE
8
0
10
-7.373000
20
-1.500000
40
0.254000
0
POLYLINE
8
0
66
1
40
0.020320
41
0.020320
0
VERTEX
8
0
10
-7.690500
20
-1.246000
0
VERTEX
8
0
10
-7.563500
20
-1.246000
0
SEQEND
8
0
0
POLYLINE
8
0
66
1
40
0.020320
41
0.020320
0
VERTEX
8
0
10
-7.627000
20
-1.182500
0
VERTEX
8
0
10
-7.627000
20
-1.309500
0
SEQEND
8
0
0
TEXT
8
0
10
-7.531750
20
-1.157100
40
0.121920
41
1.041667
1
D4
0
CIRCLE
8
0
10
-7.373000
20
-2.750000
40
0.000000
0
CIRCLE
8
0
10
-7.373000
20
-2.750000
40
0.254000
0
POLYLINE
8
0
66
1
40
0.020320
41
0.020320
0
VERTEX
8
0
10
-7.690500
20
-2.496000
0
VERTEX
8
0
10
-7.563500
20
-2.496000
0
SEQEND
8
0
0
POLYLINE
8
0
66
1
40
0.020320
41
0.020320
0
VERTEX
8
0
10
-7.627000
20
-2.432500
0
VERTEX
8
0
10
-7.627000
20
-2.559500
0
SEQEND
8
0
0
TEXT
8
0
10
-7.531750
20
-2.407100
40
0.121920
41
1.041667
1
D2
0
POLYLINE
8
0
66
1
40
0.020320
41
0.020320
0
VERTEX
8
0
10
-4.373000
20
3.000000
0
VERTEX
8
0
10
-4.246000
20
3.000000
0
SEQEND
8
0
0
POLYLINE
8
0
66
1
40
0.020320
41
0.020320
0
VERTEX
8
0
10
-4.246000
20
2.936500
0
VERTEX
8
0
10
-3.738000
20
2.936500
0
VERTEX
8
0
10
-3.738000
20
3.063500
0
VERTEX
8
0
10
-4.246000
20
3.063500
0
VERTEX
8
0
10
-4.246000
20
2.936500
0
SEQEND
8
0
0
POLYLINE
8
0
66
1
40
0.020320
41
0.020320
0
VERTEX
8
0
10
-3.738000
20
3.000000
0
VERTEX
8
0
10
-3.611000
20
3.000000
0
SEQEND
8
0
0
POLYLINE
8
0
66
1
40
0.020320
41
0.020320
0
VERTEX
8
0
10
-4.373000
20
2.750000
0
VERTEX
8
0
10
-4.246000
20
2.750000
0
SEQEND
8
0
0
POLYLINE
8
0
66
1
40
0.020320
41
0.020320
0
VERTEX
8
0
10
-4.246000
20
2.686500
0
VERTEX
8
0
10
-3.738000
20
2.686500
0
VERTEX
8
0
10
-3.738000
20
2.813500
0
VERTEX
8
0
10
-4.246000
20
2.813500
0
VERTEX
8
0
10
-4.246000
20
2.686500
0
SEQEND
8
0
0
POLYLINE
8
0
66
1
40
0.020320
41
0.020320
0
VERTEX
8
0
10
-3.738000
20
2.750000
0
VERTEX
8
0
10
-3.611000
20
2.750000
0
SEQEND
8
0
0
POLYLINE
8
0
66
1
40
0.020320
41
0.020320
0
VERTEX
8
0
10
-4.373000
20
2.500000
0
VERTEX
8
0
10
-4.246000
20
2.500000
0
SEQEND
8
0
0
POLYLINE
8
0
66
1
40
0.020320
41
0.020320
0
VERTEX
8
0
10
-4.246000
20
2.436500
0
VERTEX
8
0
10
-3.738000
20
2.436500
0
VERTEX
8
0
10
-3.738000
20
2.563500
0
VERTEX
8
0
10
-4.246000
20
2.563500
0
VERTEX
8
0
10
-4.246000
20
2.436500
0
SEQEND
8
0
0
POLYLINE
8
0
66
1
40
0.020320
41
0.020320
0
VERTEX
8
0
10
-3.738000
20
2.500000
0
VERTEX
8
0
10
-3.611000
20
2.500000
0
SEQEND
8
0
0
POLYLINE
8
0
66
1
40
0.020320
41
0.020320
0
VERTEX
8
0
10
-4.373000
20
2.250000
0
VERTEX
8
0
10
-4.246000
20
2.250000
0
SEQEND
8
0
0
POLYLINE
8
0
66
1
40
0.020320
41
0.020320
0
VERTEX
8
0
10
-4.246000
20
2.186500
0
VERTEX
8
0
10
-3.738000
20
2.186500
0
VERTEX
8
0
10
-3.738000
20
2.313500
0
VERTEX
8
0
10
-4.246000
20
2.313500
0
VERTEX
8
0
10
-4.246000
20
2.186500
0
SEQEND
8
0
0
POLYLINE
8
0
66
1
40
0.020320
41
0.020320
0
VERTEX
8
0
10
-3.738000
20
2.250000
0
VERTEX
8
0
10
-3.611000
20
2.250000
0
SEQEND
8
0
0
POLYLINE
8
0
66
1
40
0.020320
41
0.020320
0
VERTEX
8
0
10
-4.373000
20
2.000000
0
VERTEX
8
0
10
-4.246000
20
2.000000
0
SEQEND
8
0
0
POLYLINE
8
0
66
1
40
0.020320
41
0.020320
0
VERTEX
8
0
10
-4.246000
20
1.936500
0
VERTEX
8
0
10
-3.738000
20
1.936500
0
VERTEX
8
0
10
-3.738000
20
2.063500
0
VERTEX
8
0
10
-4.246000
20
2.063500
0
VERTEX
8
0
10
-4.246000
20
1.936500
0
SEQEND
8
0
0
POLYLINE
8
0
66
1
40
0.020320
41
0.020320
0
VERTEX
8
0
10
-3.738000
20
2.000000
0
VERTEX
8
0
10
-3.611000
20
2.000000
0
SEQEND
8
0
0
POLYLINE
8
0
66
1
40
0.020320
41
0.020320
0
VERTEX
8
0
10
-4.357000
20
1.750000
0
VERTEX
8
0
10
-4.230000
20
1.750000
0
SEQEND
8
0
0
POLYLINE
8
0
66
1
40
0.020320
41
0.020320
0
VERTEX
8
0
10
-4.230000
20
1.686500
0
VERTEX
8
0
10
-3.722000
20
1.686500
0
VERTEX
8
0
10
-3.722000
20
1.813500
0
VERTEX
8
0
10
-4.230000
20
1.813500
0
VERTEX
8
0
10
-4.230000
20
1.686500
0
SEQEND
8
0
0
POLYLINE
8
0
66
1
40
0.020320
41
0.020320
0
VERTEX
8
0
10
-3.722000
20
1.750000
0
VERTEX
8
0
10
-3.595000
20
1.750000
0
SEQEND
8
0
0
POLYLINE
8
0
66
1
40
0.020320
41
0.020320
0
VERTEX
8
0
10
-11.123000
20
3.377000
0
VERTEX
8
0
10
-10.996000
20
3.377000
0
SEQEND
8
0
0
POLYLINE
8
0
66
1
40
0.020320
41
0.020320
0
VERTEX
8
0
10
-10.869000
20
3.250000
0
VERTEX
8
0
10
-10.843124
20
3.252436
0
VERTEX
8
0
10
-10.819152
20
3.259485
0
VERTEX
8
0
10
-10.797562
20
3.270762
0
VERTEX
8
0
10
-10.778830
20
3.285878
0
VERTEX
8
0
10
-10.763431
20
3.304446
0
VERTEX
8
0
10
-10.751842
20
3.326081
0
VERTEX
8
0
10
-10.744540
20
3.350394
0
VERTEX
8
0
10
-10.742000
20
3.377000
0
SEQEND
8
0
0
POLYLINE
8
0
66
1
40
0.020320
41
0.020320
0
VERTEX
8
0
10
-10.869000
20
3.250000
0
VERTEX
8
0
10
-10.895606
20
3.252436
0
VERTEX
8
0
10
-10.919919
20
3.259485
0
VERTEX
8
0
10
-10.941554
20
3.270762
0
VERTEX
8
0
10
-10.960122
20
3.285878
0
VERTEX
8
0
10
-10.975238
20
3.304446
0
VERTEX
8
0
10
-10.986515
20
3.326081
0
VERTEX
8
0
10
-10.993564
20
3.350394
0
VERTEX
8
0
10
-10.996000
20
3.377000
0
SEQEND
8
0
0
POLYLINE
8
0
66
1
40
0.020320
41
0.020320
0
VERTEX
8
0
10
-10.742000
20
3.377000
0
VERTEX
8
0
10
-10.615000
20
3.377000
0
SEQEND
8
0
0
POLYLINE
8
0
66
1
40
0.020320
41
0.020320
0
VERTEX
8
0
10
-11.123000
20
1.345000
0
VERTEX
8
0
10
-10.615000
20
1.345000
0
SEQEND
8
0
0
POLYLINE
8
0
66
1
40
0.020320
41
0.020320
0
VERTEX
8
0
10
-11.123000
20
3.377000
0
VERTEX
8
0
10
-11.123000
20
1.345000
0
SEQEND
8
0
0
POLYLINE
8
0
66
1
40
0.020320
41
0.020320
0
VERTEX
8
0
10
-10.615000
20
1.345000
0
VERTEX
8
0
10
-10.615000
20
3.377000
0
SEQEND
8
0
0
TEXT
8
0
10
-10.996000
20
3.402400
40
0.121920
41
1.041667
1
U2
0
TEXT
8
0
10
-12.500000
20
3.271400
40
0.203200
41
1.000000
1
A
0
TEXT
8
0
10
-12.500000
20
3.021400
40
0.203200
41
1.000000
1
B
0
TEXT
8
0
10
-12.500000
20
2.771400
40
0.203200
41
1.000000
1
C
0
TEXT
8
0
10
-12.500000
20
2.521400
40
0.203200
41
1.000000
1
D
0
TEXT
8
0
10
-3.000000
20
3.521400
40
0.203200
41
1.000000
1
VCC
0
TEXT
8
0
10
-3.000000
20
3.271400
40
0.203200
41
1.000000
1
GND
0
TEXT
8
0
10
-3.250000
20
-1.978600
40
0.203200
41
1.000000
1
P0.2
0
TEXT
8
0
10
-3.250000
20
-1.728600
40
0.203200
41
1.000000
1
P0.3
0
TEXT
8
0
10
-3.250000
20
-1.478600
40
0.203200
41
1.000000
1
P0.4
0
TEXT
8
0
10
-3.250000
20
-2.728600
40
0.203200
41
1.000000
1
P0.5
0
TEXT
8
0
10
-3.250000
20
-2.478600
40
0.203200
41
1.000000
1
P0.6
0
TEXT
8
0
10
-3.250000
20
-2.228600
40
0.203200
41
1.000000
1
P0.7
0
POLYLINE
8
0
66
1
40
0.020320
41
0.020320
0
VERTEX
8
0
10
-7.623000
20
2.250000
0
VERTEX
8
0
10
-7.496000
20
2.250000
0
SEQEND
8
0
0
POLYLINE
8
0
66
1
40
0.020320
41
0.020320
0
VERTEX
8
0
10
-7.496000
20
2.186500
0
VERTEX
8
0
10
-6.988000
20
2.186500
0
VERTEX
8
0
10
-6.988000
20
2.313500
0
VERTEX
8
0
10
-7.496000
20
2.313500
0
VERTEX
8
0
10
-7.496000
20
2.186500
0
SEQEND
8
0
0
POLYLINE
8
0
66
1
40
0.020320
41
0.020320
0
VERTEX
8
0
10
-6.988000
20
2.250000
0
VERTEX
8
0
10
-6.861000
20
2.250000
0
SEQEND
8
0
0
POLYLINE
8
0
66
1
40
0.020320
41
0.020320
0
VERTEX
8
0
10
-7.623000
20
2.000000
0
VERTEX
8
0
10
-7.496000
20
2.000000
0
SEQEND
8
0
0
POLYLINE
8
0
66
1
40
0.020320
41
0.020320
0
VERTEX
8
0
10
-7.496000
20
1.936500
0
VERTEX
8
0
10
-6.988000
20
1.936500
0
VERTEX
8
0
10
-6.988000
20
2.063500
0
VERTEX
8
0
10
-7.496000
20
2.063500
0
VERTEX
8
0
10
-7.496000
20
1.936500
0
SEQEND
8
0
0
POLYLINE
8
0
66
1
40
0.020320
41
0.020320
0
VERTEX
8
0
10
-6.988000
20
2.000000
0
VERTEX
8
0
10
-6.861000
20
2.000000
0
SEQEND
8
0
0
POLYLINE
8
0
66
1
40
0.020320
41
0.020320
0
VERTEX
8
0
10
-8.500000
20
-1.627000
0
VERTEX
8
0
10
-8.500000
20
-1.754000
0
SEQEND
8
0
0
POLYLINE
8
0
66
1
40
0.020320
41
0.020320
0
VERTEX
8
0
10
-8.563500
20
-2.262000
0
VERTEX
8
0
10
-8.436500
20
-2.262000
0
VERTEX
8
0
10
-8.436500
20
-1.754000
0
VERTEX
8
0
10
-8.563500
20
-1.754000
0
VERTEX
8
0
10
-8.563500
20
-2.262000
0
SEQEND
8
0
0
POLYLINE
8
0
66
1
40
0.020320
41
0.020320
0
VERTEX
8
0
10
-8.500000
20
-2.262000
0
VERTEX
8
0
10
-8.500000
20
-2.389000
0
SEQEND
8
0
0
POLYLINE
8
0
66
1
40
0.020320
41
0.020320
0
VERTEX
8
0
10
-8.250000
20
-1.627000
0
VERTEX
8
0
10
-8.250000
20
-1.754000
0
SEQEND
8
0
0
POLYLINE
8
0
66
1
40
0.020320
41
0.020320
0
VERTEX
8
0
10
-8.313500
20
-2.262000
0
VERTEX
8
0
10
-8.186500
20
-2.262000
0
VERTEX
8
0
10
-8.186500
20
-1.754000
0
VERTEX
8
0
10
-8.313500
20
-1.754000
0
VERTEX
8
0
10
-8.313500
20
-2.262000
0
SEQEND
8
0
0
POLYLINE
8
0
66
1
40
0.020320
41
0.020320
0
VERTEX
8
0
10
-8.250000
20
-2.262000
0
VERTEX
8
0
10
-8.250000
20
-2.389000
0
SEQEND
8
0
0
TEXT
8
0
10
-6.500000
20
2.021400
40
0.203200
41
1.000000
1
P2.4
0
TEXT
8
0
10
-6.500000
20
2.271400
40
0.203200
41
1.000000
1
P2.5
0
TEXT
8
0
10
-8.478600
20
-3.000000
40
0.203200
41
1.000000
50
-90.000000
1
P2.6
0
TEXT
8
0
10
-8.228600
20
-3.000000
40
0.203200
41
1.000000
50
-90.000000
1
P2.7
0
POLYLINE
8
0
66
1
40
0.020320
41
0.020320
0
VERTEX
8
0
10
-10.250000
20
-2.000000
0
VERTEX
8
0
10
-10.250000
20
-3.500000
0
SEQEND
8
0
0
POLYLINE
8
0
66
1
40
0.020320
41
0.020320
0
VERTEX
8
0
10
-9.250000
20
-2.000000
0
VERTEX
8
0
10
-9.250000
20
-3.500000
0
SEQEND
8
0
0
POLYLINE
8
0
66
1
40
0.020320
41
0.020320
0
VERTEX
8
0
10
-12.500000
20
0.250000
0
VERTEX
8
0
10
-13.000000
20
0.250000
0
SEQEND
8
0
0
POLYLINE
8
0
66
1
40
0.020320
41
0.020320
0
VERTEX
8
0
10
-12.500000
20
1.250000
0
VERTEX
8
0
10
-13.000000
20
1.250000
0
SEQEND
8
0
0
POLYLINE
8
0
66
1
40
0.020320
41
0.020320
0
VERTEX
8
0
10
-7.000000
20
1.250000
0
VERTEX
8
0
10
-2.000000
20
1.250000
0
SEQEND
8
0
0
POLYLINE
8
0
66
1
40
0.020320
41
0.020320
0
VERTEX
8
0
10
-7.000000
20
0.250000
0
VERTEX
8
0
10
-2.000000
20
0.250000
0
SEQEND
8
0
0
POLYLINE
8
0
66
1
40
0.020320
41
0.020320
0
VERTEX
8
0
10
-10.250000
20
3.500000
0
VERTEX
8
0
10
-10.250000
20
4.000000
0
SEQEND
8
0
0
POLYLINE
8
0
66
1
40
0.020320
41
0.020320
0
VERTEX
8
0
10
-9.250000
20
3.500000
0
VERTEX
8
0
10
-9.250000
20
4.000000
0
SEQEND
8
0
0
POLYLINE
8
0
66
1
40
0.020320
41
0.020320
0
VERTEX
8
0
10
-9.750000
20
1.500000
0
VERTEX
8
0
10
-9.750000
20
2.000000
0
SEQEND
8
0
0
POLYLINE
8
0
66
1
40
0.020320
41
0.020320
0
VERTEX
8
0
10
-9.750000
20
2.500000
0
VERTEX
8
0
10
-9.750000
20
3.000000
0
SEQEND
8
0
0
POLYLINE
8
0
66
1
40
0.020320
41
0.020320
0
VERTEX
8
0
10
-9.750000
20
3.500000
0
VERTEX
8
0
10
-9.750000
20
4.000000
0
SEQEND
8
0
0
POLYLINE
8
0
66
1
40
0.020320
41
0.020320
0
VERTEX
8
0
10
-10.500000
20
0.750000
0
VERTEX
8
0
10
-11.000000
20
0.750000
0
SEQEND
8
0
0
POLYLINE
8
0
66
1
40
0.020320
41
0.020320
0
VERTEX
8
0
10
-11.500000
20
0.750000
0
VERTEX
8
0
10
-12.000000
20
0.750000
0
SEQEND
8
0
0
POLYLINE
8
0
66
1
40
0.020320
41
0.020320
0
VERTEX
8
0
10
-12.500000
20
0.750000
0
VERTEX
8
0
10
-13.000000
20
0.750000
0
SEQEND
8
0
0
POLYLINE
8
0
66
1
40
0.020320
41
0.020320
0
VERTEX
8
0
10
-9.750000
20
0.000000
0
VERTEX
8
0
10
-9.750000
20
-0.500000
0
SEQEND
8
0
0
POLYLINE
8
0
66
1
40
0.020320
41
0.020320
0
VERTEX
8
0
10
-9.750000
20
-1.000000
0
VERTEX
8
0
10
-9.750000
20
-1.500000
0
SEQEND
8
0
0
POLYLINE
8
0
66
1
40
0.020320
41
0.020320
0
VERTEX
8
0
10
-9.750000
20
-2.000000
0
VERTEX
8
0
10
-9.750000
20
-2.500000
0
SEQEND
8
0
0
POLYLINE
8
0
66
1
40
0.020320
41
0.020320
0
VERTEX
8
0
10
-9.750000
20
-3.000000
0
VERTEX
8
0
10
-9.750000
20
-3.500000
0
SEQEND
8
0
0
POLYLINE
8
0
66
1
40
0.020320
41
0.020320
0
VERTEX
8
0
10
-9.000000
20
0.750000
0
VERTEX
8
0
10
-8.500000
20
0.750000
0
SEQEND
8
0
0
POLYLINE
8
0
66
1
40
0.020320
41
0.020320
0
VERTEX
8
0
10
-8.000000
20
0.750000
0
VERTEX
8
0
10
-7.500000
20
0.750000
0
SEQEND
8
0
0
POLYLINE
8
0
66
1
40
0.020320
41
0.020320
0
VERTEX
8
0
10
-7.000000
20
0.750000
0
VERTEX
8
0
10
-6.500000
20
0.750000
0
SEQEND
8
0
0
POLYLINE
8
0
66
1
40
0.020320
41
0.020320
0
VERTEX
8
0
10
-6.000000
20
0.750000
0
VERTEX
8
0
10
-5.750000
20
0.750000
0
VERTEX
8
0
10
-5.500000
20
0.750000
0
SEQEND
8
0
0
POLYLINE
8
0
66
1
40
0.020320
41
0.020320
0
VERTEX
8
0
10
-5.000000
20
0.750000
0
VERTEX
8
0
10
-4.500000
20
0.750000
0
SEQEND
8
0
0
POLYLINE
8
0
66
1
40
0.020320
41
0.020320
0
VERTEX
8
0
10
-4.000000
20
0.750000
0
VERTEX
8
0
10
-3.500000
20
0.750000
0
SEQEND
8
0
0
POLYLINE
8
0
66
1
40
0.020320
41
0.020320
0
VERTEX
8
0
10
-3.000000
20
0.750000
0
VERTEX
8
0
10
-2.500000
20
0.750000
0
SEQEND
8
0
0
POLYLINE
8
0
66
1
40
0.020320
41
0.020320
0
VERTEX
8
0
10
-9.250000
20
1.250000
0
VERTEX
8
0
10
-10.250000
20
1.250000
0
VERTEX
8
0
10
-10.250000
20
0.250000
0
SEQEND
8
0
0
POLYLINE
8
0
66
1
40
0.020320
41
0.020320
0
VERTEX
8
0
10
-9.250000
20
1.250000
0
VERTEX
8
0
10
-9.250000
20
0.250000
0
VERTEX
8
0
10
-10.250000
20
0.250000
0
SEQEND
8
0
0
TEXT
8
0
10
-5.750000
20
-3.474600
40
0.203200
41
1.000000
1

0
TEXT
8
0
10
-7.000000
20
0.021400
40
0.203200
41
1.000000
1
CE103.O24 - NHOM 16
0
TEXT
8
0
10
-6.998000
20
-0.480600
40
0.203200
41
1.000000
1
TRAN NGUYEN GIAP
0
TEXT
8
0
10
-7.000000
20
-1.228600
40
0.203200
41
1.000000
1
HO HONG HAC
0
TEXT
8
0
10
-7.000000
20
-0.978600
40
0.203200
41
1.000000
1
TRUONG QUANG HIEU
0
TEXT
8
0
10
-6.996000
20
-0.728600
40
0.203200
41
1.000000
1
PHAM NGOC HAI
0
TEXT
8
0
10
-7.000000
20
-0.228600
40
0.203200
41
1.000000
1
DEN GIAO THONG
0
POLYLINE
8
0
66
1
40
0.020320
41
0.020320
0
VERTEX
8
0
10
-10.250000
20
-3.500000
0
VERTEX
8
0
10
-10.250000
20
-4.000000
0
SEQEND
8
0
0
POLYLINE
8
0
66
1
40
0.020320
41
0.020320
0
VERTEX
8
0
10
-9.250000
20
-3.500000
0
VERTEX
8
0
10
-9.250000
20
-4.000000
0
SEQEND
8
0
0
POLYLINE
8
0
66
1
40
0.020320
41
0.020320
0
VERTEX
8
0
10
-13.000000
20
-3.000000
0
VERTEX
8
0
10
-12.994949
20
-3.103928
0
VERTEX
8
0
10
-12.980103
20
-3.204468
0
VERTEX
8
0
10
-12.955918
20
-3.301163
0
VERTEX
8
0
10
-12.922852
20
-3.393555
0
VERTEX
8
0
10
-12.881363
20
-3.481186
0
VERTEX
8
0
10
-12.831909
20
-3.563599
0
VERTEX
8
0
10
-12.774948
20
-3.640335
0
VERTEX
8
0
10
-12.710938
20
-3.710938
0
VERTEX
8
0
10
-12.640335
20
-3.774948
0
VERTEX
8
0
10
-12.563599
20
-3.831909
0
VERTEX
8
0
10
-12.481186
20
-3.881363
0
VERTEX
8
0
10
-12.393555
20
-3.922852
0
VERTEX
8
0
10
-12.301163
20
-3.955917
0
VERTEX
8
0
10
-12.204468
20
-3.980103
0
VERTEX
8
0
10
-12.103928
20
-3.994949
0
VERTEX
8
0
10
-12.000000
20
-4.000000
0
SEQEND
8
0
0
POLYLINE
8
0
66
1
40
0.020320
41
0.020320
0
VERTEX
8
0
10
-12.000000
20
4.000000
0
VERTEX
8
0
10
-12.103928
20
3.994949
0
VERTEX
8
0
10
-12.204468
20
3.980103
0
VERTEX
8
0
10
-12.301163
20
3.955917
0
VERTEX
8
0
10
-12.393555
20
3.922852
0
VERTEX
8
0
10
-12.481186
20
3.881363
0
VERTEX
8
0
10
-12.563599
20
3.831909
0
VERTEX
8
0
10
-12.640335
20
3.774948
0
VERTEX
8
0
10
-12.710938
20
3.710938
0
VERTEX
8
0
10
-12.774948
20
3.640335
0
VERTEX
8
0
10
-12.831909
20
3.563599
0
VERTEX
8
0
10
-12.881363
20
3.481186
0
VERTEX
8
0
10
-12.922852
20
3.393555
0
VERTEX
8
0
10
-12.955918
20
3.301163
0
VERTEX
8
0
10
-12.980103
20
3.204468
0
VERTEX
8
0
10
-12.994949
20
3.103928
0
VERTEX
8
0
10
-13.000000
20
3.000000
0
SEQEND
8
0
0
POLYLINE
8
0
66
1
40
0.020320
41
0.020320
0
VERTEX
8
0
10
-3.000000
20
-4.000000
0
VERTEX
8
0
10
-2.896072
20
-3.994949
0
VERTEX
8
0
10
-2.795532
20
-3.980103
0
VERTEX
8
0
10
-2.698837
20
-3.955917
0
VERTEX
8
0
10
-2.606445
20
-3.922852
0
VERTEX
8
0
10
-2.518814
20
-3.881363
0
VERTEX
8
0
10
-2.436401
20
-3.831909
0
VERTEX
8
0
10
-2.359665
20
-3.774948
0
VERTEX
8
0
10
-2.289062
20
-3.710938
0
VERTEX
8
0
10
-2.225052
20
-3.640335
0
VERTEX
8
0
10
-2.168091
20
-3.563599
0
VERTEX
8
0
10
-2.118637
20
-3.481186
0
VERTEX
8
0
10
-2.077148
20
-3.393555
0
VERTEX
8
0
10
-2.044082
20
-3.301163
0
VERTEX
8
0
10
-2.019897
20
-3.204468
0
VERTEX
8
0
10
-2.005051
20
-3.103928
0
VERTEX
8
0
10
-2.000000
20
-3.000000
0
SEQEND
8
0
0
POLYLINE
8
0
66
1
40
0.020320
41
0.020320
0
VERTEX
8
0
10
-2.000000
20
3.000000
0
VERTEX
8
0
10
-2.005051
20
3.103928
0
VERTEX
8
0
10
-2.019897
20
3.204468
0
VERTEX
8
0
10
-2.044082
20
3.301163
0
VERTEX
8
0
10
-2.077148
20
3.393555
0
VERTEX
8
0
10
-2.118637
20
3.481186
0
VERTEX
8
0
10
-2.168091
20
3.563599
0
VERTEX
8
0
10
-2.225052
20
3.640335
0
VERTEX
8
0
10
-2.289062
20
3.710938
0
VERTEX
8
0
10
-2.359665
20
3.774948
0
VERTEX
8
0
10
-2.436401
20
3.831909
0
VERTEX
8
0
10
-2.518814
20
3.881363
0
VERTEX
8
0
10
-2.606445
20
3.922852
0
VERTEX
8
0
10
-2.698837
20
3.955917
0
VERTEX
8
0
10
-2.795532
20
3.980103
0
VERTEX
8
0
10
-2.896072
20
3.994949
0
VERTEX
8
0
10
-3.000000
20
4.000000
0
SEQEND
8
0
0
POLYLINE
8
0
66
1
40
0.020320
41
0.020320
0
VERTEX
8
0
10
-13.000000
20
3.000000
0
VERTEX
8
0
10
-13.000000
20
-3.000000
0
SEQEND
8
0
0
POLYLINE
8
0
66
1
40
0.020320
41
0.020320
0
VERTEX
8
0
10
-12.000000
20
-4.000000
0
VERTEX
8
0
10
-3.000000
20
-4.000000
0
SEQEND
8
0
0
POLYLINE
8
0
66
1
40
0.020320
41
0.020320
0
VERTEX
8
0
10
-2.000000
20
-3.000000
0
VERTEX
8
0
10
-2.000000
20
3.000000
0
SEQEND
8
0
0
POLYLINE
8
0
66
1
40
0.020320
41
0.020320
0
VERTEX
8
0
10
-12.000000
20
4.000000
0
VERTEX
8
0
10
-3.000000
20
4.000000
0
SEQEND
8
0
0
POLYLINE
8
0
66
1
40
0.025400
41
0.025400
0
VERTEX
8
0
10
-8.250000
20
2.250000
0
VERTEX
8
0
10
-8.750000
20
2.750000
0
VERTEX
8
0
10
-9.250000
20
2.750000
0
VERTEX
8
0
10
-9.500000
20
3.000000
0
VERTEX
8
0
10
-10.484000
20
3.000000
0
VERTEX
8
0
10
-10.488000
20
2.996000
0
SEQEND
8
0
0
POLYLINE
8
0
66
1
40
0.025400
41
0.025400
0
VERTEX
8
0
10
-10.488000
20
2.742000
0
VERTEX
8
0
10
-9.492000
20
2.742000
0
VERTEX
8
0
10
-9.250000
20
2.500000
0
VERTEX
8
0
10
-9.250000
20
1.500000
0
VERTEX
8
0
10
-9.000000
20
1.250000
0
VERTEX
8
0
10
-8.500000
20
1.250000
0
VERTEX
8
0
10
-8.250000
20
1.500000
0
SEQEND
8
0
0
POLYLINE
8
0
66
1
40
0.025400
41
0.025400
0
VERTEX
8
0
10
-10.488000
20
2.488000
0
VERTEX
8
0
10
-9.738000
20
2.488000
0
VERTEX
8
0
10
-9.500000
20
2.250000
0
VERTEX
8
0
10
-9.500000
20
1.500000
0
VERTEX
8
0
10
-9.000000
20
1.000000
0
VERTEX
8
0
10
-8.500000
20
1.000000
0
VERTEX
8
0
10
-8.000000
20
1.500000
0
VERTEX
8
0
10
-8.000000
20
1.750000
0
VERTEX
8
0
10
-8.250000
20
2.000000
0
SEQEND
8
0
0
POLYLINE
8
0
66
1
40
0.025400
41
0.025400
0
VERTEX
8
0
10
-10.488000
20
2.742000
0
VERTEX
8
0
10
-10.980000
20
2.250000
0
VERTEX
8
0
10
-11.000000
20
2.250000
0
VERTEX
8
0
10
-11.000000
20
-1.061456
0
VERTEX
8
0
10
-10.913951
20
-1.147505
0
VERTEX
8
0
10
-9.397505
20
-1.147505
0
VERTEX
8
0
10
-9.000000
20
-0.750000
0
SEQEND
8
0
0
POLYLINE
8
0
66
1
40
0.025400
41
0.025400
0
VERTEX
8
0
10
-11.250000
20
1.726000
0
VERTEX
8
0
10
-12.024000
20
2.500000
0
VERTEX
8
0
10
-12.250000
20
2.500000
0
SEQEND
8
0
0
POLYLINE
8
0
66
1
40
0.025400
41
0.025400
0
VERTEX
8
0
10
-11.250000
20
1.980000
0
VERTEX
8
0
10
-12.000000
20
2.730000
0
VERTEX
8
0
10
-12.000000
20
3.000000
0
VERTEX
8
0
10
-12.250000
20
3.250000
0
SEQEND
8
0
0
POLYLINE
8
0
66
1
40
0.025400
41
0.025400
0
VERTEX
8
0
10
-8.250000
20
2.500000
0
VERTEX
8
0
10
-8.000000
20
2.500000
0
VERTEX
8
0
10
-7.750000
20
2.250000
0
SEQEND
8
0
0
POLYLINE
8
0
66
1
40
0.025400
41
0.025400
0
VERTEX
8
0
10
-6.734000
20
2.250000
0
VERTEX
8
0
10
-6.500000
20
2.250000
0
SEQEND
8
0
0
POLYLINE
8
0
66
1
40
0.025400
41
0.025400
0
VERTEX
8
0
10
-6.734000
20
2.000000
0
VERTEX
8
0
10
-6.500000
20
2.000000
0
SEQEND
8
0
0
POLYLINE
8
0
66
1
40
0.025400
41
0.025400
0
VERTEX
8
0
10
-6.750000
20
3.000000
0
VERTEX
8
0
10
-6.750000
20
3.500000
0
VERTEX
8
0
10
-10.238000
20
3.500000
0
VERTEX
8
0
10
-10.488000
20
3.250000
0
SEQEND
8
0
0
POLYLINE
8
0
66
1
40
0.025400
41
0.025400
0
VERTEX
8
0
10
-10.488000
20
2.996000
0
VERTEX
8
0
10
-11.148061
20
2.335939
0
VERTEX
8
0
10
-11.148061
20
-1.101939
0
VERTEX
8
0
10
-11.000000
20
-1.250000
0
VERTEX
8
0
10
-8.750000
20
-1.250000
0
VERTEX
8
0
10
-8.250000
20
-0.750000
0
SEQEND
8
0
0
POLYLINE
8
0
66
1
40
0.025400
41
0.025400
0
VERTEX
8
0
10
-8.000000
20
-0.750000
0
VERTEX
8
0
10
-8.000000
20
-1.000000
0
VERTEX
8
0
10
-8.250000
20
-1.250000
0
VERTEX
8
0
10
-8.250000
20
-1.500000
0
SEQEND
8
0
0
POLYLINE
8
0
66
1
40
0.025400
41
0.025400
0
VERTEX
8
0
10
-8.500000
20
-2.516000
0
VERTEX
8
0
10
-8.500000
20
-3.000000
0
SEQEND
8
0
0
POLYLINE
8
0
66
1
40
0.025400
41
0.025400
0
VERTEX
8
0
10
-8.250000
20
-2.516000
0
VERTEX
8
0
10
-8.250000
20
-3.000000
0
SEQEND
8
0
0
POLYLINE
8
0
66
1
40
0.025400
41
0.025400
0
VERTEX
8
0
10
-10.488000
20
2.488000
0
VERTEX
8
0
10
-10.885916
20
2.090084
0
VERTEX
8
0
10
-10.885916
20
-0.864084
0
VERTEX
8
0
10
-10.750000
20
-1.000000
0
VERTEX
8
0
10
-9.500000
20
-1.000000
0
VERTEX
8
0
10
-9.000000
20
-0.500000
0
VERTEX
8
0
10
-8.750000
20
-0.500000
0
VERTEX
8
0
10
-8.500000
20
-0.750000
0
SEQEND
8
0
0
POLYLINE
8
0
66
1
40
0.025400
41
0.025400
0
VERTEX
8
0
10
-9.000000
20
2.500000
0
VERTEX
8
0
10
-8.636328
20
2.136328
0
VERTEX
8
0
10
-7.886328
20
2.136328
0
VERTEX
8
0
10
-7.750000
20
2.000000
0
SEQEND
8
0
0
POLYLINE
8
0
66
1
40
0.025400
41
0.025400
0
VERTEX
8
0
10
-8.000000
20
0.000000
0
VERTEX
8
0
10
-8.000000
20
-0.384599
0
VERTEX
8
0
10
-8.125432
20
-0.510031
0
VERTEX
8
0
10
-8.125432
20
-0.875432
0
VERTEX
8
0
10
-8.500000
20
-1.250000
0
VERTEX
8
0
10
-8.500000
20
-1.500000
0
SEQEND
8
0
0
POLYLINE
8
0
66
1
40
0.025400
41
0.025400
0
VERTEX
8
0
10
-3.250000
20
3.500000
0
VERTEX
8
0
10
-6.750000
20
3.500000
0
SEQEND
8
0
0
POLYLINE
8
0
66
1
40
0.025400
41
0.025400
0
VERTEX
8
0
10
-6.250000
20
3.000000
0
VERTEX
8
0
10
-4.500000
20
3.000000
0
SEQEND
8
0
0
POLYLINE
8
0
66
1
40
0.063500
41
0.063500
0
VERTEX
8
0
10
-3.250000
20
3.500000
0
VERTEX
8
0
10
-3.500000
20
3.250000
0
VERTEX
8
0
10
-3.500000
20
3.016000
0
VERTEX
8
0
10
-3.484000
20
3.000000
0
SEQEND
8
0
0
POLYLINE
8
0
66
1
40
0.025400
41
0.025400
0
VERTEX
8
0
10
-7.500000
20
3.000000
0
VERTEX
8
0
10
-7.250000
20
2.750000
0
VERTEX
8
0
10
-4.500000
20
2.750000
0
SEQEND
8
0
0
POLYLINE
8
0
66
1
40
0.025400
41
0.025400
0
VERTEX
8
0
10
-3.484000
20
3.000000
0
VERTEX
8
0
10
-3.484000
20
2.750000
0
SEQEND
8
0
0
POLYLINE
8
0
66
1
40
0.025400
41
0.025400
0
VERTEX
8
0
10
-8.750000
20
3.000000
0
VERTEX
8
0
10
-7.759145
20
3.000000
0
VERTEX
8
0
10
-7.509145
20
2.750000
0
VERTEX
8
0
10
-7.500000
20
2.750000
0
VERTEX
8
0
10
-7.250000
20
2.500000
0
VERTEX
8
0
10
-4.500000
20
2.500000
0
SEQEND
8
0
0
POLYLINE
8
0
66
1
40
0.025400
41
0.025400
0
VERTEX
8
0
10
-3.484000
20
2.750000
0
VERTEX
8
0
10
-3.484000
20
2.500000
0
SEQEND
8
0
0
POLYLINE
8
0
66
1
40
0.025400
41
0.025400
0
VERTEX
8
0
10
-7.500000
20
-0.250000
0
VERTEX
8
0
10
-7.500000
20
-0.240432
0
VERTEX
8
0
10
-7.259568
20
0.000000
0
VERTEX
8
0
10
-6.250000
20
0.000000
0
VERTEX
8
0
10
-6.000000
20
0.250000
0
VERTEX
8
0
10
-6.000000
20
2.000000
0
VERTEX
8
0
10
-5.750000
20
2.250000
0
VERTEX
8
0
10
-4.500000
20
2.250000
0
SEQEND
8
0
0
POLYLINE
8
0
66
1
40
0.025400
41
0.025400
0
VERTEX
8
0
10
-3.484000
20
2.500000
0
VERTEX
8
0
10
-3.484000
20
2.250000
0
VERTEX
8
0
10
-3.484000
20
2.000000
0
VERTEX
8
0
10
-3.484000
20
1.750000
0
VERTEX
8
0
10
-3.468000
20
1.750000
0
SEQEND
8
0
0
POLYLINE
8
0
66
1
40
0.025400
41
0.025400
0
VERTEX
8
0
10
-7.500000
20
-1.500000
0
VERTEX
8
0
10
-7.500000
20
-0.750000
0
VERTEX
8
0
10
-7.250000
20
-0.500000
0
VERTEX
8
0
10
-6.000000
20
-0.500000
0
VERTEX
8
0
10
-5.750000
20
-0.250000
0
VERTEX
8
0
10
-5.750000
20
1.750000
0
VERTEX
8
0
10
-5.500000
20
2.000000
0
VERTEX
8
0
10
-4.500000
20
2.000000
0
SEQEND
8
0
0
POLYLINE
8
0
66
1
40
0.025400
41
0.025400
0
VERTEX
8
0
10
-7.500000
20
-2.750000
0
VERTEX
8
0
10
-7.500000
20
-2.250000
0
VERTEX
8
0
10
-7.000000
20
-1.750000
0
VERTEX
8
0
10
-7.000000
20
-1.000000
0
VERTEX
8
0
10
-6.750000
20
-0.750000
0
VERTEX
8
0
10
-5.750000
20
-0.750000
0
VERTEX
8
0
10
-5.500000
20
-0.500000
0
VERTEX
8
0
10
-5.500000
20
1.500000
0
VERTEX
8
0
10
-5.250000
20
1.750000
0
VERTEX
8
0
10
-4.484000
20
1.750000
0
SEQEND
8
0
0
POLYLINE
8
0
66
1
40
0.063500
41
0.063500
0
VERTEX
8
0
10
-7.500000
20
3.254000
0
VERTEX
8
0
10
-8.750000
20
3.254000
0
SEQEND
8
0
0
POLYLINE
8
0
66
1
40
0.063500
41
0.063500
0
VERTEX
8
0
10
-7.500000
20
3.254000
0
VERTEX
8
0
10
-6.250000
20
3.254000
0
SEQEND
8
0
0
POLYLINE
8
0
66
1
40
0.063500
41
0.063500
0
VERTEX
8
0
10
-7.246000
20
-0.250000
0
VERTEX
8
0
10
-7.246000
20
-1.500000
0
VERTEX
8
0
10
-7.246000
20
-2.750000
0
SEQEND
8
0
0
POLYLINE
8
0
66
1
40
0.063500
41
0.063500
0
VERTEX
8
0
10
-6.250000
20
3.254000
0
VERTEX
8
0
10
-5.500000
20
3.254000
0
SEQEND
8
0
0
POLYLINE
8
0
66
1
40
0.063500
41
0.063500
0
VERTEX
8
0
10
-7.246000
20
-0.250000
0
VERTEX
8
0
10
-6.246000
20
-0.250000
0
VERTEX
8
0
10
-5.750000
20
0.246000
0
VERTEX
8
0
10
-5.750000
20
3.000000
0
VERTEX
8
0
10
-5.500000
20
3.254000
0
SEQEND
8
0
0
POLYLINE
8
0
66
1
40
0.063500
41
0.063500
0
VERTEX
8
0
10
-11.250000
20
2.742000
0
VERTEX
8
0
10
-11.250000
20
2.488000
0
VERTEX
8
0
10
-11.250000
20
2.234000
0
SEQEND
8
0
0
POLYLINE
8
0
66
1
40
0.063500
41
0.063500
0
VERTEX
8
0
10
-11.250000
20
2.742000
0
VERTEX
8
0
10
-10.996000
20
2.742000
0
VERTEX
8
0
10
-10.488000
20
3.250000
0
SEQEND
8
0
0
POLYLINE
8
0
66
1
40
0.025400
41
0.025400
0
VERTEX
8
0
10
-9.000000
20
2.250000
0
VERTEX
8
0
10
-10.472000
20
2.250000
0
VERTEX
8
0
10
-10.488000
20
2.234000
0
SEQEND
8
0
0
POLYLINE
8
0
66
1
40
0.025400
41
0.025400
0
VERTEX
8
0
10
-9.000000
20
2.000000
0
VERTEX
8
0
10
-10.468000
20
2.000000
0
VERTEX
8
0
10
-10.488000
20
1.980000
0
SEQEND
8
0
0
POLYLINE
8
0
66
1
40
0.025400
41
0.025400
0
VERTEX
8
0
10
-9.000000
20
1.500000
0
VERTEX
8
0
10
-10.262000
20
1.500000
0
VERTEX
8
0
10
-10.488000
20
1.726000
0
SEQEND
8
0
0
POLYLINE
8
0
66
1
40
0.025400
41
0.025400
0
VERTEX
8
0
10
-9.000000
20
1.750000
0
VERTEX
8
0
10
-10.159608
20
1.750000
0
VERTEX
8
0
10
-10.252728
20
1.843120
0
VERTEX
8
0
10
-10.656880
20
1.843120
0
VERTEX
8
0
10
-10.750000
20
1.750000
0
VERTEX
8
0
10
-10.750000
20
1.547794
0
VERTEX
8
0
10
-10.669303
20
1.467097
0
VERTEX
8
0
10
-10.492903
20
1.467097
0
VERTEX
8
0
10
-10.488000
20
1.472000
0
SEQEND
8
0
0
POLYLINE
8
0
66
1
40
0.025400
41
0.025400
0
VERTEX
8
0
10
-9.000000
20
1.750000
0
VERTEX
8
0
10
-8.750000
20
1.500000
0
VERTEX
8
0
10
-8.750000
20
0.000000
0
SEQEND
8
0
0
POLYLINE
8
0
66
1
40
0.025400
41
0.025400
0
VERTEX
8
0
10
-9.000000
20
2.000000
0
VERTEX
8
0
10
-8.500000
20
1.500000
0
VERTEX
8
0
10
-8.500000
20
0.000000
0
SEQEND
8
0
0
POLYLINE
8
0
66
1
40
0.025400
41
0.025400
0
VERTEX
8
0
10
-9.000000
20
2.250000
0
VERTEX
8
0
10
-9.000000
20
2.111055
0
VERTEX
8
0
10
-8.328325
20
1.439380
0
VERTEX
8
0
10
-8.328325
20
0.078325
0
VERTEX
8
0
10
-8.250000
20
0.000000
0
SEQEND
8
0
0
POLYLINE
8
0
66
1
40
0.025400
41
0.025400
0
VERTEX
8
0
10
-11.250000
20
3.250000
0
VERTEX
8
0
10
-12.000000
20
3.250000
0
VERTEX
8
0
10
-12.250000
20
3.000000
0
SEQEND
8
0
0
POLYLINE
8
0
66
1
40
0.025400
41
0.025400
0
VERTEX
8
0
10
-11.250000
20
2.996000
0
VERTEX
8
0
10
-12.004000
20
2.996000
0
VERTEX
8
0
10
-12.250000
20
2.750000
0
SEQEND
8
0
0
POLYLINE
8
0
66
1
40
0.025400
41
0.025400
0
VERTEX
8
0
10
-6.734000
20
2.000000
0
VERTEX
8
0
10
-6.734000
20
2.250000
0
VERTEX
8
0
10
-6.734000
20
2.984000
0
VERTEX
8
0
10
-6.750000
20
3.000000
0
SEQEND
8
0
0
POLYLINE
8
0
66
1
40
0.025400
41
0.025400
0
VERTEX
8
0
10
-8.500000
20
-2.516000
0
VERTEX
8
0
10
-8.250000
20
-2.516000
0
VERTEX
8
0
10
-7.750000
20
-2.016000
0
VERTEX
8
0
10
-7.750000
20
1.250000
0
VERTEX
8
0
10
-7.500000
20
1.500000
0
VERTEX
8
0
10
-7.000000
20
1.500000
0
VERTEX
8
0
10
-6.750000
20
1.750000
0
VERTEX
8
0
10
-6.734000
20
2.000000
0
SEQEND
8
0
0
POLYLINE
8
0
66
1
40
0.025400
41
0.025400
0
VERTEX
8
0
10
-9.000000
20
1.500000
0
VERTEX
8
0
10
-9.000000
20
0.000000
0
SEQEND
8
0
0
POLYLINE
8
0
66
1
40
0.063500
41
0.063500
0
VERTEX
8
0
10
-8.750000
20
3.254000
0
VERTEX
8
0
10
-9.865843
20
3.254000
0
VERTEX
8
0
10
-10.253753
20
2.866090
0
VERTEX
8
0
10
-10.553793
20
2.866090
0
VERTEX
8
0
10
-11.000000
20
2.419883
0
VERTEX
8
0
10
-11.000000
20
1.722000
0
VERTEX
8
0
10
-11.250000
20
1.472000
0
SEQEND
8
0
0
POLYLINE
8
0
66
1
40
0.063500
41
0.063500
0
VERTEX
8
0
10
-3.250000
20
3.250000
0
VERTEX
8
0
10
-5.496000
20
3.250000
0
VERTEX
8
0
10
-5.500000
20
3.254000
0
SEQEND
8
0
0
POLYLINE
8
0
66
1
40
0.025400
41
0.025400
0
VERTEX
8
0
10
-4.500000
20
3.000000
0
VERTEX
8
0
10
-4.000000
20
3.000000
0
VERTEX
8
0
10
-3.750000
20
2.750000
0
VERTEX
8
0
10
-3.750000
20
-1.250000
0
VERTEX
8
0
10
-3.500000
20
-1.500000
0
SEQEND
8
0
0
POLYLINE
8
0
66
1
40
0.025400
41
0.025400
0
VERTEX
8
0
10
-4.500000
20
2.750000
0
VERTEX
8
0
10
-4.250000
20
2.750000
0
VERTEX
8
0
10
-4.000000
20
2.500000
0
VERTEX
8
0
10
-4.000000
20
-1.500000
0
VERTEX
8
0
10
-3.750000
20
-1.750000
0
VERTEX
8
0
10
-3.500000
20
-1.750000
0
SEQEND
8
0
0
POLYLINE
8
0
66
1
40
0.025400
41
0.025400
0
VERTEX
8
0
10
-4.500000
20
2.500000
0
VERTEX
8
0
10
-4.250000
20
2.250000
0
VERTEX
8
0
10
-4.250000
20
-1.750000
0
VERTEX
8
0
10
-4.000000
20
-2.000000
0
VERTEX
8
0
10
-3.500000
20
-2.000000
0
SEQEND
8
0
0
POLYLINE
8
0
66
1
40
0.025400
41
0.025400
0
VERTEX
8
0
10
-4.500000
20
2.250000
0
VERTEX
8
0
10
-5.000000
20
2.250000
0
VERTEX
8
0
10
-5.250000
20
2.000000
0
VERTEX
8
0
10
-5.250000
20
-2.500000
0
VERTEX
8
0
10
-5.000000
20
-2.750000
0
VERTEX
8
0
10
-3.500000
20
-2.750000
0
SEQEND
8
0
0
POLYLINE
8
0
66
1
40
0.025400
41
0.025400
0
VERTEX
8
0
10
-4.500000
20
2.000000
0
VERTEX
8
0
10
-4.750000
20
2.000000
0
VERTEX
8
0
10
-5.000000
20
1.750000
0
VERTEX
8
0
10
-5.000000
20
-2.250000
0
VERTEX
8
0
10
-4.750000
20
-2.500000
0
VERTEX
8
0
10
-3.500000
20
-2.500000
0
SEQEND
8
0
0
POLYLINE
8
0
66
1
40
0.025400
41
0.025400
0
VERTEX
8
0
10
-4.484000
20
1.750000
0
VERTEX
8
0
10
-4.750000
20
1.484000
0
VERTEX
8
0
10
-4.750000
20
-2.000000
0
VERTEX
8
0
10
-4.500000
20
-2.250000
0
VERTEX
8
0
10
-3.500000
20
-2.250000
0
SEQEND
8
0
0
INSERT
8
0
2
EPAD
10
-6.750000
20
3.000000
41
0.076200
42
0.076200
0
CIRCLE
8
0
10
-6.750000
20
3.000000
40
0.025400
0
INSERT
8
0
2
EPAD
10
-9.000000
20
1.500000
41
0.076200
42
0.076200
0
CIRCLE
8
0
10
-9.000000
20
1.500000
40
0.025400
0
INSERT
8
0
2
EPAD
10
-9.000000
20
1.750000
41
0.076200
42
0.076200
0
CIRCLE
8
0
10
-9.000000
20
1.750000
40
0.025400
0
INSERT
8
0
2
EPAD
10
-9.000000
20
2.000000
41
0.076200
42
0.076200
0
CIRCLE
8
0
10
-9.000000
20
2.000000
40
0.025400
0
INSERT
8
0
2
EPAD
10
-9.000000
20
2.250000
41
0.076200
42
0.076200
0
CIRCLE
8
0
10
-9.000000
20
2.250000
40
0.025400
0
INSERT
8
0
2
EPAD
10
-8.250000
20
1.500000
41
0.076200
42
0.076200
0
CIRCLE
8
0
10
-8.250000
20
1.500000
40
0.025400
0
INSERT
8
0
2
EPAD
10
-8.250000
20
2.000000
41
0.076200
42
0.076200
0
CIRCLE
8
0
10
-8.250000
20
2.000000
40
0.025400
0
INSERT
8
0
2
EPAD
10
-8.250000
20
2.250000
41
0.076200
42
0.076200
0
CIRCLE
8
0
10
-8.250000
20
2.250000
40
0.025400
0
POLYLINE
8
0
66
1
70
1
40
0
41
0
0
VERTEX
8
0
10
-8.148400
20
1.813500
0
VERTEX
8
0
10
-8.123000
20
1.788100
0
VERTEX
8
0
10
-8.123000
20
1.711900
0
VERTEX
8
0
10
-8.148400
20
1.686500
0
VERTEX
8
0
10
-8.351600
20
1.686500
0
VERTEX
8
0
10
-8.377000
20
1.711900
0
VERTEX
8
0
10
-8.377000
20
1.788100
0
VERTEX
8
0
10
-8.351600
20
1.813500
0
VERTEX
8
0
10
-8.148400
20
1.813500
0
SEQEND
8
0
0
CIRCLE
8
0
10
-8.250000
20
1.750000
40
0.025400
0
INSERT
8
0
2
RPAD
10
-9.000000
20
2.500000
41
0.127000
42
0.127000
50
0.000000
0
CIRCLE
8
0
10
-9.000000
20
2.500000
40
0.076200
0
INSERT
8
0
2
RPAD
10
-8.250000
20
2.500000
41
0.127000
42
0.127000
50
0.000000
0
CIRCLE
8
0
10
-8.250000
20
2.500000
40
0.076200
0
INSERT
8
0
2
RPAD
10
-8.750000
20
3.000000
41
0.203200
42
0.203200
50
90.000000
0
CIRCLE
8
0
10
-8.750000
20
3.000000
40
0.063500
0
INSERT
8
0
2
RPAD
10
-8.750000
20
3.254000
41
0.203200
42
0.203200
50
90.000000
0
CIRCLE
8
0
10
-8.750000
20
3.254000
40
0.063500
0
INSERT
8
0
2
RPAD
10
-7.500000
20
3.000000
41
0.203200
42
0.203200
50
90.000000
0
CIRCLE
8
0
10
-7.500000
20
3.000000
40
0.063500
0
INSERT
8
0
2
RPAD
10
-7.500000
20
3.254000
41
0.203200
42
0.203200
50
90.000000
0
CIRCLE
8
0
10
-7.500000
20
3.254000
40
0.063500
0
INSERT
8
0
2
RPAD
10
-6.250000
20
3.000000
41
0.203200
42
0.203200
50
90.000000
0
CIRCLE
8
0
10
-6.250000
20
3.000000
40
0.063500
0
INSERT
8
0
2
RPAD
10
-6.250000
20
3.254000
41
0.203200
42
0.203200
50
90.000000
0
CIRCLE
8
0
10
-6.250000
20
3.254000
40
0.063500
0
INSERT
8
0
2
EPAD
10
-9.000000
20
0.000000
41
0.076200
42
0.076200
0
CIRCLE
8
0
10
-9.000000
20
0.000000
40
0.025400
0
INSERT
8
0
2
EPAD
10
-8.750000
20
0.000000
41
0.076200
42
0.076200
0
CIRCLE
8
0
10
-8.750000
20
0.000000
40
0.025400
0
INSERT
8
0
2
EPAD
10
-8.500000
20
0.000000
41
0.076200
42
0.076200
0
CIRCLE
8
0
10
-8.500000
20
0.000000
40
0.025400
0
INSERT
8
0
2
EPAD
10
-8.250000
20
0.000000
41
0.076200
42
0.076200
0
CIRCLE
8
0
10
-8.250000
20
0.000000
40
0.025400
0
INSERT
8
0
2
EPAD
10
-9.000000
20
-0.750000
41
0.076200
42
0.076200
0
CIRCLE
8
0
10
-9.000000
20
-0.750000
40
0.025400
0
INSERT
8
0
2
EPAD
10
-8.500000
20
-0.750000
41
0.076200
42
0.076200
0
CIRCLE
8
0
10
-8.500000
20
-0.750000
40
0.025400
0
INSERT
8
0
2
EPAD
10
-8.250000
20
-0.750000
41
0.076200
42
0.076200
0
CIRCLE
8
0
10
-8.250000
20
-0.750000
40
0.025400
0
POLYLINE
8
0
66
1
70
1
40
0
41
0
0
VERTEX
8
0
10
-8.686500
20
-0.851600
0
VERTEX
8
0
10
-8.711900
20
-0.877000
0
VERTEX
8
0
10
-8.788100
20
-0.877000
0
VERTEX
8
0
10
-8.813500
20
-0.851600
0
VERTEX
8
0
10
-8.813500
20
-0.648400
0
VERTEX
8
0
10
-8.788100
20
-0.623000
0
VERTEX
8
0
10
-8.711900
20
-0.623000
0
VERTEX
8
0
10
-8.686500
20
-0.648400
0
VERTEX
8
0
10
-8.686500
20
-0.851600
0
SEQEND
8
0
0
CIRCLE
8
0
10
-8.750000
20
-0.750000
40
0.025400
0
INSERT
8
0
2
RPAD
10
-8.000000
20
0.000000
41
0.127000
42
0.127000
50
-90.000000
0
CIRCLE
8
0
10
-8.000000
20
0.000000
40
0.076200
0
INSERT
8
0
2
RPAD
10
-8.000000
20
-0.750000
41
0.127000
42
0.127000
50
-90.000000
0
CIRCLE
8
0
10
-8.000000
20
-0.750000
40
0.076200
0
INSERT
8
0
2
RPAD
10
-7.500000
20
-0.250000
41
0.203200
42
0.203200
50
0.000000
0
CIRCLE
8
0
10
-7.500000
20
-0.250000
40
0.063500
0
INSERT
8
0
2
RPAD
10
-7.246000
20
-0.250000
41
0.203200
42
0.203200
50
0.000000
0
CIRCLE
8
0
10
-7.246000
20
-0.250000
40
0.063500
0
INSERT
8
0
2
RPAD
10
-7.500000
20
-1.500000
41
0.203200
42
0.203200
50
0.000000
0
CIRCLE
8
0
10
-7.500000
20
-1.500000
40
0.063500
0
INSERT
8
0
2
RPAD
10
-7.246000
20
-1.500000
41
0.203200
42
0.203200
50
0.000000
0
CIRCLE
8
0
10
-7.246000
20
-1.500000
40
0.063500
0
INSERT
8
0
2
RPAD
10
-7.500000
20
-2.750000
41
0.203200
42
0.203200
50
0.000000
0
CIRCLE
8
0
10
-7.500000
20
-2.750000
40
0.063500
0
INSERT
8
0
2
RPAD
10
-7.246000
20
-2.750000
41
0.203200
42
0.203200
50
0.000000
0
CIRCLE
8
0
10
-7.246000
20
-2.750000
40
0.063500
0
INSERT
8
0
2
EPAD
10
-4.500000
20
3.000000
41
0.177800
42
0.177800
0
CIRCLE
8
0
10
-4.500000
20
3.000000
40
0.063500
0
INSERT
8
0
2
EPAD
10
-3.484000
20
3.000000
41
0.177800
42
0.177800
0
CIRCLE
8
0
10
-3.484000
20
3.000000
40
0.063500
0
INSERT
8
0
2
EPAD
10
-4.500000
20
2.750000
41
0.177800
42
0.177800
0
CIRCLE
8
0
10
-4.500000
20
2.750000
40
0.063500
0
INSERT
8
0
2
EPAD
10
-3.484000
20
2.750000
41
0.177800
42
0.177800
0
CIRCLE
8
0
10
-3.484000
20
2.750000
40
0.063500
0
INSERT
8
0
2
EPAD
10
-4.500000
20
2.500000
41
0.177800
42
0.177800
0
CIRCLE
8
0
10
-4.500000
20
2.500000
40
0.063500
0
INSERT
8
0
2
EPAD
10
-3.484000
20
2.500000
41
0.177800
42
0.177800
0
CIRCLE
8
0
10
-3.484000
20
2.500000
40
0.063500
0
INSERT
8
0
2
EPAD
10
-4.500000
20
2.250000
41
0.177800
42
0.177800
0
CIRCLE
8
0
10
-4.500000
20
2.250000
40
0.063500
0
INSERT
8
0
2
EPAD
10
-3.484000
20
2.250000
41
0.177800
42
0.177800
0
CIRCLE
8
0
10
-3.484000
20
2.250000
40
0.063500
0
INSERT
8
0
2
EPAD
10
-4.500000
20
2.000000
41
0.177800
42
0.177800
0
CIRCLE
8
0
10
-4.500000
20
2.000000
40
0.063500
0
INSERT
8
0
2
EPAD
10
-3.484000
20
2.000000
41
0.177800
42
0.177800
0
CIRCLE
8
0
10
-3.484000
20
2.000000
40
0.063500
0
INSERT
8
0
2
EPAD
10
-4.484000
20
1.750000
41
0.177800
42
0.177800
0
CIRCLE
8
0
10
-4.484000
20
1.750000
40
0.063500
0
INSERT
8
0
2
EPAD
10
-3.468000
20
1.750000
41
0.177800
42
0.177800
0
CIRCLE
8
0
10
-3.468000
20
1.750000
40
0.063500
0
INSERT
8
0
2
RPAD
10
-3.250000
20
3.250000
41
0.127000
42
0.127000
50
0.000000
0
CIRCLE
8
0
10
-3.250000
20
3.250000
40
0.076200
0
INSERT
8
0
2
RPAD
10
-11.250000
20
3.250000
41
0.127000
42
0.127000
50
270.000000
0
CIRCLE
8
0
10
-11.250000
20
3.250000
40
0.076200
0
INSERT
8
0
2
EPAD
10
-11.250000
20
2.996000
41
0.127000
42
0.127000
0
CIRCLE
8
0
10
-11.250000
20
2.996000
40
0.076200
0
INSERT
8
0
2
EPAD
10
-11.250000
20
2.742000
41
0.127000
42
0.127000
0
CIRCLE
8
0
10
-11.250000
20
2.742000
40
0.076200
0
INSERT
8
0
2
EPAD
10
-11.250000
20
2.488000
41
0.127000
42
0.127000
0
CIRCLE
8
0
10
-11.250000
20
2.488000
40
0.076200
0
INSERT
8
0
2
EPAD
10
-11.250000
20
2.234000
41
0.127000
42
0.127000
0
CIRCLE
8
0
10
-11.250000
20
2.234000
40
0.076200
0
INSERT
8
0
2
EPAD
10
-11.250000
20
1.980000
41
0.127000
42
0.127000
0
CIRCLE
8
0
10
-11.250000
20
1.980000
40
0.076200
0
INSERT
8
0
2
EPAD
10
-11.250000
20
1.726000
41
0.127000
42
0.127000
0
CIRCLE
8
0
10
-11.250000
20
1.726000
40
0.076200
0
INSERT
8
0
2
EPAD
10
-11.250000
20
1.472000
41
0.127000
42
0.127000
0
CIRCLE
8
0
10
-11.250000
20
1.472000
40
0.076200
0
INSERT
8
0
2
EPAD
10
-10.488000
20
1.472000
41
0.127000
42
0.127000
0
CIRCLE
8
0
10
-10.488000
20
1.472000
40
0.076200
0
INSERT
8
0
2
EPAD
10
-10.488000
20
1.726000
41
0.127000
42
0.127000
0
CIRCLE
8
0
10
-10.488000
20
1.726000
40
0.076200
0
INSERT
8
0
2
EPAD
10
-10.488000
20
1.980000
41
0.127000
42
0.127000
0
CIRCLE
8
0
10
-10.488000
20
1.980000
40
0.076200
0
INSERT
8
0
2
EPAD
10
-10.488000
20
2.234000
41
0.127000
42
0.127000
0
CIRCLE
8
0
10
-10.488000
20
2.234000
40
0.076200
0
INSERT
8
0
2
EPAD
10
-10.488000
20
2.488000
41
0.127000
42
0.127000
0
CIRCLE
8
0
10
-10.488000
20
2.488000
40
0.076200
0
INSERT
8
0
2
EPAD
10
-10.488000
20
2.742000
41
0.127000
42
0.127000
0
CIRCLE
8
0
10
-10.488000
20
2.742000
40
0.076200
0
INSERT
8
0
2
EPAD
10
-10.488000
20
2.996000
41
0.127000
42
0.127000
0
CIRCLE
8
0
10
-10.488000
20
2.996000
40
0.076200
0
INSERT
8
0
2
EPAD
10
-10.488000
20
3.250000
41
0.127000
42
0.127000
0
CIRCLE
8
0
10
-10.488000
20
3.250000
40
0.076200
0
INSERT
8
0
2
RPAD
10
-3.250000
20
3.500000
41
0.127000
42
0.127000
50
0.000000
0
CIRCLE
8
0
10
-3.250000
20
3.500000
40
0.076200
0
INSERT
8
0
2
EPAD
10
-12.250000
20
3.250000
41
0.076200
42
0.076200
0
CIRCLE
8
0
10
-12.250000
20
3.250000
40
0.025400
0
INSERT
8
0
2
EPAD
10
-12.250000
20
3.000000
41
0.076200
42
0.076200
0
CIRCLE
8
0
10
-12.250000
20
3.000000
40
0.025400
0
INSERT
8
0
2
EPAD
10
-12.250000
20
2.750000
41
0.076200
42
0.076200
0
CIRCLE
8
0
10
-12.250000
20
2.750000
40
0.025400
0
INSERT
8
0
2
EPAD
10
-12.250000
20
2.500000
41
0.076200
42
0.076200
0
CIRCLE
8
0
10
-12.250000
20
2.500000
40
0.025400
0
INSERT
8
0
2
EPAD
10
-7.750000
20
2.250000
41
0.177800
42
0.177800
0
CIRCLE
8
0
10
-7.750000
20
2.250000
40
0.063500
0
INSERT
8
0
2
EPAD
10
-6.734000
20
2.250000
41
0.177800
42
0.177800
0
CIRCLE
8
0
10
-6.734000
20
2.250000
40
0.063500
0
INSERT
8
0
2
EPAD
10
-7.750000
20
2.000000
41
0.177800
42
0.177800
0
CIRCLE
8
0
10
-7.750000
20
2.000000
40
0.063500
0
INSERT
8
0
2
EPAD
10
-6.734000
20
2.000000
41
0.177800
42
0.177800
0
CIRCLE
8
0
10
-6.734000
20
2.000000
40
0.063500
0
INSERT
8
0
2
EPAD
10
-6.500000
20
2.250000
41
0.076200
42
0.076200
0
CIRCLE
8
0
10
-6.500000
20
2.250000
40
0.025400
0
INSERT
8
0
2
EPAD
10
-6.500000
20
2.000000
41
0.076200
42
0.076200
0
CIRCLE
8
0
10
-6.500000
20
2.000000
40
0.025400
0
INSERT
8
0
2
EPAD
10
-8.500000
20
-1.500000
41
0.177800
42
0.177800
0
CIRCLE
8
0
10
-8.500000
20
-1.500000
40
0.063500
0
INSERT
8
0
2
EPAD
10
-8.500000
20
-2.516000
41
0.177800
42
0.177800
0
CIRCLE
8
0
10
-8.500000
20
-2.516000
40
0.063500
0
INSERT
8
0
2
EPAD
10
-8.250000
20
-1.500000
41
0.177800
42
0.177800
0
CIRCLE
8
0
10
-8.250000
20
-1.500000
40
0.063500
0
INSERT
8
0
2
EPAD
10
-8.250000
20
-2.516000
41
0.177800
42
0.177800
0
CIRCLE
8
0
10
-8.250000
20
-2.516000
40
0.063500
0
INSERT
8
0
2
EPAD
10
-8.500000
20
-3.000000
41
0.076200
42
0.076200
0
CIRCLE
8
0
10
-8.500000
20
-3.000000
40
0.025400
0
INSERT
8
0
2
EPAD
10
-8.250000
20
-3.000000
41
0.076200
42
0.076200
0
CIRCLE
8
0
10
-8.250000
20
-3.000000
40
0.025400
0
INSERT
8
0
2
EPAD
10
-3.500000
20
-1.500000
41
0.076200
42
0.076200
0
CIRCLE
8
0
10
-3.500000
20
-1.500000
40
0.025400
0
INSERT
8
0
2
EPAD
10
-3.500000
20
-1.750000
41
0.076200
42
0.076200
0
CIRCLE
8
0
10
-3.500000
20
-1.750000
40
0.025400
0
INSERT
8
0
2
EPAD
10
-3.500000
20
-2.000000
41
0.076200
42
0.076200
0
CIRCLE
8
0
10
-3.500000
20
-2.000000
40
0.025400
0
INSERT
8
0
2
EPAD
10
-3.500000
20
-2.250000
41
0.076200
42
0.076200
0
CIRCLE
8
0
10
-3.500000
20
-2.250000
40
0.025400
0
INSERT
8
0
2
EPAD
10
-3.500000
20
-2.500000
41
0.076200
42
0.076200
0
CIRCLE
8
0
10
-3.500000
20
-2.500000
40
0.025400
0
INSERT
8
0
2
EPAD
10
-3.500000
20
-2.750000
41
0.076200
42
0.076200
0
CIRCLE
8
0
10
-3.500000
20
-2.750000
40
0.025400
0
CIRCLE
8
0
10
-8.750000
20
3.127000
40
0.000000
0
CIRCLE
8
0
10
-8.750000
20
3.127000
40
0.254000
0
POLYLINE
8
0
66
1
40
0.020320
41
0.020320
0
VERTEX
8
0
10
-9.004000
20
2.809500
0
VERTEX
8
0
10
-9.004000
20
2.936500
0
SEQEND
8
0
0
POLYLINE
8
0
66
1
40
0.020320
41
0.020320
0
VERTEX
8
0
10
-9.067500
20
2.873000
0
VERTEX
8
0
10
-8.940500
20
2.873000
0
SEQEND
8
0
0
TEXT
8
0
10
-9.092900
20
2.968250
40
0.121920
41
1.041667
50
90.000000
1
D5
0
CIRCLE
8
0
10
-7.500000
20
3.127000
40
0.000000
0
CIRCLE
8
0
10
-7.500000
20
3.127000
40
0.254000
0
POLYLINE
8
0
66
1
40
0.020320
41
0.020320
0
VERTEX
8
0
10
-7.754000
20
2.809500
0
VERTEX
8
0
10
-7.754000
20
2.936500
0
SEQEND
8
0
0
POLYLINE
8
0
66
1
40
0.020320
41
0.020320
0
VERTEX
8
0
10
-7.817500
20
2.873000
0
VERTEX
8
0
10
-7.690500
20
2.873000
0
SEQEND
8
0
0
TEXT
8
0
10
-7.842900
20
2.968250
40
0.121920
41
1.041667
50
90.000000
1
D3
0
CIRCLE
8
0
10
-6.250000
20
3.127000
40
0.000000
0
CIRCLE
8
0
10
-6.250000
20
3.127000
40
0.254000
0
POLYLINE
8
0
66
1
40
0.020320
41
0.020320
0
VERTEX
8
0
10
-6.504000
20
2.809500
0
VERTEX
8
0
10
-6.504000
20
2.936500
0
SEQEND
8
0
0
POLYLINE
8
0
66
1
40
0.020320
41
0.020320
0
VERTEX
8
0
10
-6.567500
20
2.873000
0
VERTEX
8
0
10
-6.440500
20
2.873000
0
SEQEND
8
0
0
TEXT
8
0
10
-6.592900
20
2.968250
40
0.121920
41
1.041667
50
90.000000
1
D1
0
POLYLINE
8
0
66
1
40
0.020320
41
0.020320
0
VERTEX
8
0
10
-9.250000
20
1.250000
0
VERTEX
8
0
10
-9.250000
20
3.500000
0
SEQEND
8
0
0
POLYLINE
8
0
66
1
40
0.020320
41
0.020320
0
VERTEX
8
0
10
-10.250000
20
3.500000
0
VERTEX
8
0
10
-10.250000
20
1.250000
0
VERTEX
8
0
10
-12.250000
20
1.250000
0
VERTEX
8
0
10
-12.500000
20
1.250000
0
SEQEND
8
0
0
POLYLINE
8
0
66
1
40
0.020320
41
0.020320
0
VERTEX
8
0
10
-9.250000
20
1.250000
0
VERTEX
8
0
10
-7.000000
20
1.250000
0
SEQEND
8
0
0
POLYLINE
8
0
66
1
40
0.020320
41
0.020320
0
VERTEX
8
0
10
-10.250000
20
0.250000
0
VERTEX
8
0
10
-12.500000
20
0.250000
0
SEQEND
8
0
0
POLYLINE
8
0
66
1
40
0.020320
41
0.020320
0
VERTEX
8
0
10
-9.250000
20
0.250000
0
VERTEX
8
0
10
-7.000000
20
0.250000
0
SEQEND
8
0
0
POLYLINE
8
0
66
1
40
0.020320
41
0.020320
0
VERTEX
8
0
10
-9.250000
20
0.250000
0
VERTEX
8
0
10
-9.250000
20
-2.000000
0
SEQEND
8
0
0
POLYLINE
8
0
66
1
40
0.020320
41
0.020320
0
VERTEX
8
0
10
-10.250000
20
0.250000
0
VERTEX
8
0
10
-10.250000
20
-2.000000
0
SEQEND
8
0
0
CIRCLE
8
0
10
-7.373000
20
-0.250000
40
0.000000
0
CIRCLE
8
0
10
-7.373000
20
-0.250000
40
0.254000
0
POLYLINE
8
0
66
1
40
0.020320
41
0.020320
0
VERTEX
8
0
10
-7.690500
20
0.004000
0
VERTEX
8
0
10
-7.563500
20
0.004000
0
SEQEND
8
0
0
POLYLINE
8
0
66
1
40
0.020320
41
0.020320
0
VERTEX
8
0
10
-7.627000
20
0.067500
0
VERTEX
8
0
10
-7.627000
20
-0.059500
0
SEQEND
8
0
0
TEXT
8
0
10
-7.531750
20
0.092900
40
0.121920
41
1.041667
1
D6
0
CIRCLE
8
0
10
-7.373000
20
-1.500000
40
0.000000
0
CIRCLE
8
0
10
-7.373000
20
-1.500000
40
0.254000
0
POLYLINE
8
0
66
1
40
0.020320
41
0.020320
0
VERTEX
8
0
10
-7.690500
20
-1.246000
0
VERTEX
8
0
10
-7.563500
20
-1.246000
0
SEQEND
8
0
0
POLYLINE
8
0
66
1
40
0.020320
41
0.020320
0
VERTEX
8
0
10
-7.627000
20
-1.182500
0
VERTEX
8
0
10
-7.627000
20
-1.309500
0
SEQEND
8
0
0
TEXT
8
0
10
-7.531750
20
-1.157100
40
0.121920
41
1.041667
1
D4
0
CIRCLE
8
0
10
-7.373000
20
-2.750000
40
0.000000
0
CIRCLE
8
0
10
-7.373000
20
-2.750000
40
0.254000
0
POLYLINE
8
0
66
1
40
0.020320
41
0.020320
0
VERTEX
8
0
10
-7.690500
20
-2.496000
0
VERTEX
8
0
10
-7.563500
20
-2.496000
0
SEQEND
8
0
0
POLYLINE
8
0
66
1
40
0.020320
41
0.020320
0
VERTEX
8
0
10
-7.627000
20
-2.432500
0
VERTEX
8
0
10
-7.627000
20
-2.559500
0
SEQEND
8
0
0
TEXT
8
0
10
-7.531750
20
-2.407100
40
0.121920
41
1.041667
1
D2
0
POLYLINE
8
0
66
1
40
0.020320
41
0.020320
0
VERTEX
8
0
10
-4.373000
20
3.000000
0
VERTEX
8
0
10
-4.246000
20
3.000000
0
SEQEND
8
0
0
POLYLINE
8
0
66
1
40
0.020320
41
0.020320
0
VERTEX
8
0
10
-4.246000
20
2.936500
0
VERTEX
8
0
10
-3.738000
20
2.936500
0
VERTEX
8
0
10
-3.738000
20
3.063500
0
VERTEX
8
0
10
-4.246000
20
3.063500
0
VERTEX
8
0
10
-4.246000
20
2.936500
0
SEQEND
8
0
0
POLYLINE
8
0
66
1
40
0.020320
41
0.020320
0
VERTEX
8
0
10
-3.738000
20
3.000000
0
VERTEX
8
0
10
-3.611000
20
3.000000
0
SEQEND
8
0
0
POLYLINE
8
0
66
1
40
0.020320
41
0.020320
0
VERTEX
8
0
10
-4.373000
20
2.750000
0
VERTEX
8
0
10
-4.246000
20
2.750000
0
SEQEND
8
0
0
POLYLINE
8
0
66
1
40
0.020320
41
0.020320
0
VERTEX
8
0
10
-4.246000
20
2.686500
0
VERTEX
8
0
10
-3.738000
20
2.686500
0
VERTEX
8
0
10
-3.738000
20
2.813500
0
VERTEX
8
0
10
-4.246000
20
2.813500
0
VERTEX
8
0
10
-4.246000
20
2.686500
0
SEQEND
8
0
0
POLYLINE
8
0
66
1
40
0.020320
41
0.020320
0
VERTEX
8
0
10
-3.738000
20
2.750000
0
VERTEX
8
0
10
-3.611000
20
2.750000
0
SEQEND
8
0
0
POLYLINE
8
0
66
1
40
0.020320
41
0.020320
0
VERTEX
8
0
10
-4.373000
20
2.500000
0
VERTEX
8
0
10
-4.246000
20
2.500000
0
SEQEND
8
0
0
POLYLINE
8
0
66
1
40
0.020320
41
0.020320
0
VERTEX
8
0
10
-4.246000
20
2.436500
0
VERTEX
8
0
10
-3.738000
20
2.436500
0
VERTEX
8
0
10
-3.738000
20
2.563500
0
VERTEX
8
0
10
-4.246000
20
2.563500
0
VERTEX
8
0
10
-4.246000
20
2.436500
0
SEQEND
8
0
0
POLYLINE
8
0
66
1
40
0.020320
41
0.020320
0
VERTEX
8
0
10
-3.738000
20
2.500000
0
VERTEX
8
0
10
-3.611000
20
2.500000
0
SEQEND
8
0
0
POLYLINE
8
0
66
1
40
0.020320
41
0.020320
0
VERTEX
8
0
10
-4.373000
20
2.250000
0
VERTEX
8
0
10
-4.246000
20
2.250000
0
SEQEND
8
0
0
POLYLINE
8
0
66
1
40
0.020320
41
0.020320
0
VERTEX
8
0
10
-4.246000
20
2.186500
0
VERTEX
8
0
10
-3.738000
20
2.186500
0
VERTEX
8
0
10
-3.738000
20
2.313500
0
VERTEX
8
0
10
-4.246000
20
2.313500
0
VERTEX
8
0
10
-4.246000
20
2.186500
0
SEQEND
8
0
0
POLYLINE
8
0
66
1
40
0.020320
41
0.020320
0
VERTEX
8
0
10
-3.738000
20
2.250000
0
VERTEX
8
0
10
-3.611000
20
2.250000
0
SEQEND
8
0
0
POLYLINE
8
0
66
1
40
0.020320
41
0.020320
0
VERTEX
8
0
10
-4.373000
20
2.000000
0
VERTEX
8
0
10
-4.246000
20
2.000000
0
SEQEND
8
0
0
POLYLINE
8
0
66
1
40
0.020320
41
0.020320
0
VERTEX
8
0
10
-4.246000
20
1.936500
0
VERTEX
8
0
10
-3.738000
20
1.936500
0
VERTEX
8
0
10
-3.738000
20
2.063500
0
VERTEX
8
0
10
-4.246000
20
2.063500
0
VERTEX
8
0
10
-4.246000
20
1.936500
0
SEQEND
8
0
0
POLYLINE
8
0
66
1
40
0.020320
41
0.020320
0
VERTEX
8
0
10
-3.738000
20
2.000000
0
VERTEX
8
0
10
-3.611000
20
2.000000
0
SEQEND
8
0
0
POLYLINE
8
0
66
1
40
0.020320
41
0.020320
0
VERTEX
8
0
10
-4.357000
20
1.750000
0
VERTEX
8
0
10
-4.230000
20
1.750000
0
SEQEND
8
0
0
POLYLINE
8
0
66
1
40
0.020320
41
0.020320
0
VERTEX
8
0
10
-4.230000
20
1.686500
0
VERTEX
8
0
10
-3.722000
20
1.686500
0
VERTEX
8
0
10
-3.722000
20
1.813500
0
VERTEX
8
0
10
-4.230000
20
1.813500
0
VERTEX
8
0
10
-4.230000
20
1.686500
0
SEQEND
8
0
0
POLYLINE
8
0
66
1
40
0.020320
41
0.020320
0
VERTEX
8
0
10
-3.722000
20
1.750000
0
VERTEX
8
0
10
-3.595000
20
1.750000
0
SEQEND
8
0
0
POLYLINE
8
0
66
1
40
0.020320
41
0.020320
0
VERTEX
8
0
10
-11.123000
20
3.377000
0
VERTEX
8
0
10
-10.996000
20
3.377000
0
SEQEND
8
0
0
POLYLINE
8
0
66
1
40
0.020320
41
0.020320
0
VERTEX
8
0
10
-10.869000
20
3.250000
0
VERTEX
8
0
10
-10.843124
20
3.252436
0
VERTEX
8
0
10
-10.819152
20
3.259485
0
VERTEX
8
0
10
-10.797562
20
3.270762
0
VERTEX
8
0
10
-10.778830
20
3.285878
0
VERTEX
8
0
10
-10.763431
20
3.304446
0
VERTEX
8
0
10
-10.751842
20
3.326081
0
VERTEX
8
0
10
-10.744540
20
3.350394
0
VERTEX
8
0
10
-10.742000
20
3.377000
0
SEQEND
8
0
0
POLYLINE
8
0
66
1
40
0.020320
41
0.020320
0
VERTEX
8
0
10
-10.869000
20
3.250000
0
VERTEX
8
0
10
-10.895606
20
3.252436
0
VERTEX
8
0
10
-10.919919
20
3.259485
0
VERTEX
8
0
10
-10.941554
20
3.270762
0
VERTEX
8
0
10
-10.960122
20
3.285878
0
VERTEX
8
0
10
-10.975238
20
3.304446
0
VERTEX
8
0
10
-10.986515
20
3.326081
0
VERTEX
8
0
10
-10.993564
20
3.350394
0
VERTEX
8
0
10
-10.996000
20
3.377000
0
SEQEND
8
0
0
POLYLINE
8
0
66
1
40
0.020320
41
0.020320
0
VERTEX
8
0
10
-10.742000
20
3.377000
0
VERTEX
8
0
10
-10.615000
20
3.377000
0
SEQEND
8
0
0
POLYLINE
8
0
66
1
40
0.020320
41
0.020320
0
VERTEX
8
0
10
-11.123000
20
1.345000
0
VERTEX
8
0
10
-10.615000
20
1.345000
0
SEQEND
8
0
0
POLYLINE
8
0
66
1
40
0.020320
41
0.020320
0
VERTEX
8
0
10
-11.123000
20
3.377000
0
VERTEX
8
0
10
-11.123000
20
1.345000
0
SEQEND
8
0
0
POLYLINE
8
0
66
1
40
0.020320
41
0.020320
0
VERTEX
8
0
10
-10.615000
20
1.345000
0
VERTEX
8
0
10
-10.615000
20
3.377000
0
SEQEND
8
0
0
TEXT
8
0
10
-10.996000
20
3.402400
40
0.121920
41
1.041667
1
U2
0
TEXT
8
0
10
-12.500000
20
3.271400
40
0.203200
41
1.000000
1
A
0
TEXT
8
0
10
-12.500000
20
3.021400
40
0.203200
41
1.000000
1
B
0
TEXT
8
0
10
-12.500000
20
2.771400
40
0.203200
41
1.000000
1
C
0
TEXT
8
0
10
-12.500000
20
2.521400
40
0.203200
41
1.000000
1
D
0
TEXT
8
0
10
-3.000000
20
3.521400
40
0.203200
41
1.000000
1
VCC
0
TEXT
8
0
10
-3.000000
20
3.271400
40
0.203200
41
1.000000
1
GND
0
TEXT
8
0
10
-3.250000
20
-1.978600
40
0.203200
41
1.000000
1
P0.2
0
TEXT
8
0
10
-3.250000
20
-1.728600
40
0.203200
41
1.000000
1
P0.3
0
TEXT
8
0
10
-3.250000
20
-1.478600
40
0.203200
41
1.000000
1
P0.4
0
TEXT
8
0
10
-3.250000
20
-2.728600
40
0.203200
41
1.000000
1
P0.5
0
TEXT
8
0
10
-3.250000
20
-2.478600
40
0.203200
41
1.000000
1
P0.6
0
TEXT
8
0
10
-3.250000
20
-2.228600
40
0.203200
41
1.000000
1
P0.7
0
POLYLINE
8
0
66
1
40
0.020320
41
0.020320
0
VERTEX
8
0
10
-7.623000
20
2.250000
0
VERTEX
8
0
10
-7.496000
20
2.250000
0
SEQEND
8
0
0
POLYLINE
8
0
66
1
40
0.020320
41
0.020320
0
VERTEX
8
0
10
-7.496000
20
2.186500
0
VERTEX
8
0
10
-6.988000
20
2.186500
0
VERTEX
8
0
10
-6.988000
20
2.313500
0
VERTEX
8
0
10
-7.496000
20
2.313500
0
VERTEX
8
0
10
-7.496000
20
2.186500
0
SEQEND
8
0
0
POLYLINE
8
0
66
1
40
0.020320
41
0.020320
0
VERTEX
8
0
10
-6.988000
20
2.250000
0
VERTEX
8
0
10
-6.861000
20
2.250000
0
SEQEND
8
0
0
POLYLINE
8
0
66
1
40
0.020320
41
0.020320
0
VERTEX
8
0
10
-7.623000
20
2.000000
0
VERTEX
8
0
10
-7.496000
20
2.000000
0
SEQEND
8
0
0
POLYLINE
8
0
66
1
40
0.020320
41
0.020320
0
VERTEX
8
0
10
-7.496000
20
1.936500
0
VERTEX
8
0
10
-6.988000
20
1.936500
0
VERTEX
8
0
10
-6.988000
20
2.063500
0
VERTEX
8
0
10
-7.496000
20
2.063500
0
VERTEX
8
0
10
-7.496000
20
1.936500
0
SEQEND
8
0
0
POLYLINE
8
0
66
1
40
0.020320
41
0.020320
0
VERTEX
8
0
10
-6.988000
20
2.000000
0
VERTEX
8
0
10
-6.861000
20
2.000000
0
SEQEND
8
0
0
POLYLINE
8
0
66
1
40
0.020320
41
0.020320
0
VERTEX
8
0
10
-8.500000
20
-1.627000
0
VERTEX
8
0
10
-8.500000
20
-1.754000
0
SEQEND
8
0
0
POLYLINE
8
0
66
1
40
0.020320
41
0.020320
0
VERTEX
8
0
10
-8.563500
20
-2.262000
0
VERTEX
8
0
10
-8.436500
20
-2.262000
0
VERTEX
8
0
10
-8.436500
20
-1.754000
0
VERTEX
8
0
10
-8.563500
20
-1.754000
0
VERTEX
8
0
10
-8.563500
20
-2.262000
0
SEQEND
8
0
0
POLYLINE
8
0
66
1
40
0.020320
41
0.020320
0
VERTEX
8
0
10
-8.500000
20
-2.262000
0
VERTEX
8
0
10
-8.500000
20
-2.389000
0
SEQEND
8
0
0
POLYLINE
8
0
66
1
40
0.020320
41
0.020320
0
VERTEX
8
0
10
-8.250000
20
-1.627000
0
VERTEX
8
0
10
-8.250000
20
-1.754000
0
SEQEND
8
0
0
POLYLINE
8
0
66
1
40
0.020320
41
0.020320
0
VERTEX
8
0
10
-8.313500
20
-2.262000
0
VERTEX
8
0
10
-8.186500
20
-2.262000
0
VERTEX
8
0
10
-8.186500
20
-1.754000
0
VERTEX
8
0
10
-8.313500
20
-1.754000
0
VERTEX
8
0
10
-8.313500
20
-2.262000
0
SEQEND
8
0
0
POLYLINE
8
0
66
1
40
0.020320
41
0.020320
0
VERTEX
8
0
10
-8.250000
20
-2.262000
0
VERTEX
8
0
10
-8.250000
20
-2.389000
0
SEQEND
8
0
0
TEXT
8
0
10
-6.500000
20
2.021400
40
0.203200
41
1.000000
1
P2.4
0
TEXT
8
0
10
-6.500000
20
2.271400
40
0.203200
41
1.000000
1
P2.5
0
TEXT
8
0
10
-8.478600
20
-3.000000
40
0.203200
41
1.000000
50
-90.000000
1
P2.6
0
TEXT
8
0
10
-8.228600
20
-3.000000
40
0.203200
41
1.000000
50
-90.000000
1
P2.7
0
POLYLINE
8
0
66
1
40
0.020320
41
0.020320
0
VERTEX
8
0
10
-10.250000
20
-2.000000
0
VERTEX
8
0
10
-10.250000
20
-3.500000
0
SEQEND
8
0
0
POLYLINE
8
0
66
1
40
0.020320
41
0.020320
0
VERTEX
8
0
10
-9.250000
20
-2.000000
0
VERTEX
8
0
10
-9.250000
20
-3.500000
0
SEQEND
8
0
0
POLYLINE
8
0
66
1
40
0.020320
41
0.020320
0
VERTEX
8
0
10
-12.500000
20
0.250000
0
VERTEX
8
0
10
-13.000000
20
0.250000
0
SEQEND
8
0
0
POLYLINE
8
0
66
1
40
0.020320
41
0.020320
0
VERTEX
8
0
10
-12.500000
20
1.250000
0
VERTEX
8
0
10
-13.000000
20
1.250000
0
SEQEND
8
0
0
POLYLINE
8
0
66
1
40
0.020320
41
0.020320
0
VERTEX
8
0
10
-7.000000
20
1.250000
0
VERTEX
8
0
10
-2.000000
20
1.250000
0
SEQEND
8
0
0
POLYLINE
8
0
66
1
40
0.020320
41
0.020320
0
VERTEX
8
0
10
-7.000000
20
0.250000
0
VERTEX
8
0
10
-2.000000
20
0.250000
0
SEQEND
8
0
0
POLYLINE
8
0
66
1
40
0.020320
41
0.020320
0
VERTEX
8
0
10
-10.250000
20
3.500000
0
VERTEX
8
0
10
-10.250000
20
4.000000
0
SEQEND
8
0
0
POLYLINE
8
0
66
1
40
0.020320
41
0.020320
0
VERTEX
8
0
10
-9.250000
20
3.500000
0
VERTEX
8
0
10
-9.250000
20
4.000000
0
SEQEND
8
0
0
POLYLINE
8
0
66
1
40
0.020320
41
0.020320
0
VERTEX
8
0
10
-9.750000
20
1.500000
0
VERTEX
8
0
10
-9.750000
20
2.000000
0
SEQEND
8
0
0
POLYLINE
8
0
66
1
40
0.020320
41
0.020320
0
VERTEX
8
0
10
-9.750000
20
2.500000
0
VERTEX
8
0
10
-9.750000
20
3.000000
0
SEQEND
8
0
0
POLYLINE
8
0
66
1
40
0.020320
41
0.020320
0
VERTEX
8
0
10
-9.750000
20
3.500000
0
VERTEX
8
0
10
-9.750000
20
4.000000
0
SEQEND
8
0
0
POLYLINE
8
0
66
1
40
0.020320
41
0.020320
0
VERTEX
8
0
10
-10.500000
20
0.750000
0
VERTEX
8
0
10
-11.000000
20
0.750000
0
SEQEND
8
0
0
POLYLINE
8
0
66
1
40
0.020320
41
0.020320
0
VERTEX
8
0
10
-11.500000
20
0.750000
0
VERTEX
8
0
10
-12.000000
20
0.750000
0
SEQEND
8
0
0
POLYLINE
8
0
66
1
40
0.020320
41
0.020320
0
VERTEX
8
0
10
-12.500000
20
0.750000
0
VERTEX
8
0
10
-13.000000
20
0.750000
0
SEQEND
8
0
0
POLYLINE
8
0
66
1
40
0.020320
41
0.020320
0
VERTEX
8
0
10
-9.750000
20
0.000000
0
VERTEX
8
0
10
-9.750000
20
-0.500000
0
SEQEND
8
0
0
POLYLINE
8
0
66
1
40
0.020320
41
0.020320
0
VERTEX
8
0
10
-9.750000
20
-1.000000
0
VERTEX
8
0
10
-9.750000
20
-1.500000
0
SEQEND
8
0
0
POLYLINE
8
0
66
1
40
0.020320
41
0.020320
0
VERTEX
8
0
10
-9.750000
20
-2.000000
0
VERTEX
8
0
10
-9.750000
20
-2.500000
0
SEQEND
8
0
0
POLYLINE
8
0
66
1
40
0.020320
41
0.020320
0
VERTEX
8
0
10
-9.750000
20
-3.000000
0
VERTEX
8
0
10
-9.750000
20
-3.500000
0
SEQEND
8
0
0
POLYLINE
8
0
66
1
40
0.020320
41
0.020320
0
VERTEX
8
0
10
-9.000000
20
0.750000
0
VERTEX
8
0
10
-8.500000
20
0.750000
0
SEQEND
8
0
0
POLYLINE
8
0
66
1
40
0.020320
41
0.020320
0
VERTEX
8
0
10
-8.000000
20
0.750000
0
VERTEX
8
0
10
-7.500000
20
0.750000
0
SEQEND
8
0
0
POLYLINE
8
0
66
1
40
0.020320
41
0.020320
0
VERTEX
8
0
10
-7.000000
20
0.750000
0
VERTEX
8
0
10
-6.500000
20
0.750000
0
SEQEND
8
0
0
POLYLINE
8
0
66
1
40
0.020320
41
0.020320
0
VERTEX
8
0
10
-6.000000
20
0.750000
0
VERTEX
8
0
10
-5.750000
20
0.750000
0
VERTEX
8
0
10
-5.500000
20
0.750000
0
SEQEND
8
0
0
POLYLINE
8
0
66
1
40
0.020320
41
0.020320
0
VERTEX
8
0
10
-5.000000
20
0.750000
0
VERTEX
8
0
10
-4.500000
20
0.750000
0
SEQEND
8
0
0
POLYLINE
8
0
66
1
40
0.020320
41
0.020320
0
VERTEX
8
0
10
-4.000000
20
0.750000
0
VERTEX
8
0
10
-3.500000
20
0.750000
0
SEQEND
8
0
0
POLYLINE
8
0
66
1
40
0.020320
41
0.020320
0
VERTEX
8
0
10
-3.000000
20
0.750000
0
VERTEX
8
0
10
-2.500000
20
0.750000
0
SEQEND
8
0
0
POLYLINE
8
0
66
1
40
0.020320
41
0.020320
0
VERTEX
8
0
10
-9.250000
20
1.250000
0
VERTEX
8
0
10
-10.250000
20
1.250000
0
VERTEX
8
0
10
-10.250000
20
0.250000
0
SEQEND
8
0
0
POLYLINE
8
0
66
1
40
0.020320
41
0.020320
0
VERTEX
8
0
10
-9.250000
20
1.250000
0
VERTEX
8
0
10
-9.250000
20
0.250000
0
VERTEX
8
0
10
-10.250000
20
0.250000
0
SEQEND
8
0
0
TEXT
8
0
10
-5.750000
20
-3.474600
40
0.203200
41
1.000000
1

0
TEXT
8
0
10
-7.000000
20
0.021400
40
0.203200
41
1.000000
1
CE103.O24 - NHOM 16
0
TEXT
8
0
10
-6.998000
20
-0.480600
40
0.203200
41
1.000000
1
TRAN NGUYEN GIAP
0
TEXT
8
0
10
-7.000000
20
-1.228600
40
0.203200
41
1.000000
1
HO HONG HAC
0
TEXT
8
0
10
-7.000000
20
-0.978600
40
0.203200
41
1.000000
1
TRUONG QUANG HIEU
0
TEXT
8
0
10
-6.996000
20
-0.728600
40
0.203200
41
1.000000
1
PHAM NGOC HAI
0
TEXT
8
0
10
-7.000000
20
-0.228600
40
0.203200
41
1.000000
1
DEN GIAO THONG
0
POLYLINE
8
0
66
1
40
0.020320
41
0.020320
0
VERTEX
8
0
10
-10.250000
20
-3.500000
0
VERTEX
8
0
10
-10.250000
20
-4.000000
0
SEQEND
8
0
0
POLYLINE
8
0
66
1
40
0.020320
41
0.020320
0
VERTEX
8
0
10
-9.250000
20
-3.500000
0
VERTEX
8
0
10
-9.250000
20
-4.000000
0
SEQEND
8
0
0
POLYLINE
8
0
66
1
40
0.020320
41
0.020320
0
VERTEX
8
0
10
-13.000000
20
-3.000000
0
VERTEX
8
0
10
-12.994949
20
-3.103928
0
VERTEX
8
0
10
-12.980103
20
-3.204468
0
VERTEX
8
0
10
-12.955918
20
-3.301163
0
VERTEX
8
0
10
-12.922852
20
-3.393555
0
VERTEX
8
0
10
-12.881363
20
-3.481186
0
VERTEX
8
0
10
-12.831909
20
-3.563599
0
VERTEX
8
0
10
-12.774948
20
-3.640335
0
VERTEX
8
0
10
-12.710938
20
-3.710938
0
VERTEX
8
0
10
-12.640335
20
-3.774948
0
VERTEX
8
0
10
-12.563599
20
-3.831909
0
VERTEX
8
0
10
-12.481186
20
-3.881363
0
VERTEX
8
0
10
-12.393555
20
-3.922852
0
VERTEX
8
0
10
-12.301163
20
-3.955917
0
VERTEX
8
0
10
-12.204468
20
-3.980103
0
VERTEX
8
0
10
-12.103928
20
-3.994949
0
VERTEX
8
0
10
-12.000000
20
-4.000000
0
SEQEND
8
0
0
POLYLINE
8
0
66
1
40
0.020320
41
0.020320
0
VERTEX
8
0
10
-12.000000
20
4.000000
0
VERTEX
8
0
10
-12.103928
20
3.994949
0
VERTEX
8
0
10
-12.204468
20
3.980103
0
VERTEX
8
0
10
-12.301163
20
3.955917
0
VERTEX
8
0
10
-12.393555
20
3.922852
0
VERTEX
8
0
10
-12.481186
20
3.881363
0
VERTEX
8
0
10
-12.563599
20
3.831909
0
VERTEX
8
0
10
-12.640335
20
3.774948
0
VERTEX
8
0
10
-12.710938
20
3.710938
0
VERTEX
8
0
10
-12.774948
20
3.640335
0
VERTEX
8
0
10
-12.831909
20
3.563599
0
VERTEX
8
0
10
-12.881363
20
3.481186
0
VERTEX
8
0
10
-12.922852
20
3.393555
0
VERTEX
8
0
10
-12.955918
20
3.301163
0
VERTEX
8
0
10
-12.980103
20
3.204468
0
VERTEX
8
0
10
-12.994949
20
3.103928
0
VERTEX
8
0
10
-13.000000
20
3.000000
0
SEQEND
8
0
0
POLYLINE
8
0
66
1
40
0.020320
41
0.020320
0
VERTEX
8
0
10
-3.000000
20
-4.000000
0
VERTEX
8
0
10
-2.896072
20
-3.994949
0
VERTEX
8
0
10
-2.795532
20
-3.980103
0
VERTEX
8
0
10
-2.698837
20
-3.955917
0
VERTEX
8
0
10
-2.606445
20
-3.922852
0
VERTEX
8
0
10
-2.518814
20
-3.881363
0
VERTEX
8
0
10
-2.436401
20
-3.831909
0
VERTEX
8
0
10
-2.359665
20
-3.774948
0
VERTEX
8
0
10
-2.289062
20
-3.710938
0
VERTEX
8
0
10
-2.225052
20
-3.640335
0
VERTEX
8
0
10
-2.168091
20
-3.563599
0
VERTEX
8
0
10
-2.118637
20
-3.481186
0
VERTEX
8
0
10
-2.077148
20
-3.393555
0
VERTEX
8
0
10
-2.044082
20
-3.301163
0
VERTEX
8
0
10
-2.019897
20
-3.204468
0
VERTEX
8
0
10
-2.005051
20
-3.103928
0
VERTEX
8
0
10
-2.000000
20
-3.000000
0
SEQEND
8
0
0
POLYLINE
8
0
66
1
40
0.020320
41
0.020320
0
VERTEX
8
0
10
-2.000000
20
3.000000
0
VERTEX
8
0
10
-2.005051
20
3.103928
0
VERTEX
8
0
10
-2.019897
20
3.204468
0
VERTEX
8
0
10
-2.044082
20
3.301163
0
VERTEX
8
0
10
-2.077148
20
3.393555
0
VERTEX
8
0
10
-2.118637
20
3.481186
0
VERTEX
8
0
10
-2.168091
20
3.563599
0
VERTEX
8
0
10
-2.225052
20
3.640335
0
VERTEX
8
0
10
-2.289062
20
3.710938
0
VERTEX
8
0
10
-2.359665
20
3.774948
0
VERTEX
8
0
10
-2.436401
20
3.831909
0
VERTEX
8
0
10
-2.518814
20
3.881363
0
VERTEX
8
0
10
-2.606445
20
3.922852
0
VERTEX
8
0
10
-2.698837
20
3.955917
0
VERTEX
8
0
10
-2.795532
20
3.980103
0
VERTEX
8
0
10
-2.896072
20
3.994949
0
VERTEX
8
0
10
-3.000000
20
4.000000
0
SEQEND
8
0
0
POLYLINE
8
0
66
1
40
0.020320
41
0.020320
0
VERTEX
8
0
10
-13.000000
20
3.000000
0
VERTEX
8
0
10
-13.000000
20
-3.000000
0
SEQEND
8
0
0
POLYLINE
8
0
66
1
40
0.020320
41
0.020320
0
VERTEX
8
0
10
-12.000000
20
-4.000000
0
VERTEX
8
0
10
-3.000000
20
-4.000000
0
SEQEND
8
0
0
POLYLINE
8
0
66
1
40
0.020320
41
0.020320
0
VERTEX
8
0
10
-2.000000
20
-3.000000
0
VERTEX
8
0
10
-2.000000
20
3.000000
0
SEQEND
8
0
0
POLYLINE
8
0
66
1
40
0.020320
41
0.020320
0
VERTEX
8
0
10
-12.000000
20
4.000000
0
VERTEX
8
0
10
-3.000000
20
4.000000
0
SEQEND
8
0
0
ENDSEC
0
EOF

